<svg width="40" height="40" viewBox="0 0 40 40" fill="none" xmlns="http://www.w3.org/2000/svg">
<path d="M36.4767 9.22666C36.3352 8.9574 36.1229 8.73189 35.8627 8.57445C35.6025 8.41702 35.3042 8.33365 35 8.33333H5.00002C4.69642 8.33458 4.39891 8.41857 4.13948 8.57627C3.88006 8.73396 3.66852 8.95939 3.52763 9.22832C3.38674 9.49724 3.32183 9.79949 3.33987 10.1025C3.35791 10.4056 3.45822 10.698 3.63002 10.9483L18.63 32.615C18.7829 32.8371 18.9875 33.0186 19.2262 33.1441C19.4648 33.2695 19.7304 33.3351 20 33.3351C20.2696 33.3351 20.5352 33.2695 20.7739 33.1441C21.0125 33.0186 21.2171 32.8371 21.37 32.615L36.37 10.9483C36.5435 10.6985 36.6452 10.4059 36.664 10.1024C36.6828 9.79886 36.618 9.49596 36.4767 9.22666ZM20 28.7383L8.18002 11.6667H31.82L20 28.7383Z" fill="white"/>
</svg>
