<svg width="946" height="603" viewBox="0 0 946 603" fill="none" xmlns="http://www.w3.org/2000/svg">
<g clip-path="url(#clip0)">
<path fill-rule="evenodd" clip-rule="evenodd" d="M911.921 353.709C906.378 375.746 898.066 396.992 887.185 416.939C877.379 434.894 864.237 453.908 846.746 471.253C816.163 501.582 775.831 525.259 729.054 530.327C690.363 534.519 647.296 525.949 601.712 497.911C601.063 497.517 600.285 497.396 599.547 497.577C598.81 497.757 598.175 498.223 597.781 498.872C597.387 499.521 597.267 500.3 597.447 501.038C597.627 501.775 598.093 502.411 598.741 502.806C645.713 531.132 689.95 539.485 729.561 534.844C777.223 529.255 818.191 504.835 849.112 473.629C866.679 455.905 879.83 436.531 889.582 418.256C900.399 398.022 908.609 376.498 914.015 354.198C914.055 354.059 914.066 353.913 914.048 353.769C914.03 353.625 913.983 353.486 913.91 353.361C913.837 353.236 913.74 353.127 913.623 353.04C913.507 352.953 913.375 352.891 913.234 352.857C913.093 352.823 912.947 352.817 912.804 352.841C912.661 352.865 912.524 352.917 912.402 352.995C912.28 353.073 912.175 353.175 912.093 353.294C912.011 353.414 911.954 353.549 911.925 353.691L911.921 353.709Z" fill="#A9503C"/>
<path fill-rule="evenodd" clip-rule="evenodd" d="M672.374 466.598C669.795 466.54 647.025 466.296 635.947 473.989C616.539 487.472 621.872 507.905 622.081 508.666C627.364 503.179 636.863 493.679 644.499 487.721C652.135 481.763 664.863 472.196 672.374 466.598Z" fill="#A9503C"/>
<path fill-rule="evenodd" clip-rule="evenodd" d="M672.374 466.598C664.872 472.196 652.091 481.798 644.499 487.717C636.908 493.635 627.364 503.175 622.081 508.661C622.081 508.661 647.577 510.094 658.801 496.745C669.768 483.703 672.588 466.576 672.588 466.576L672.374 466.598Z" fill="#BF604B"/>
<path fill-rule="evenodd" clip-rule="evenodd" d="M913.909 318.943C914.798 320.02 922.443 329.622 922.852 336.858C923.568 349.566 913.139 354.078 912.748 354.243C913.322 350.18 914.202 342.998 914.198 337.779C914.193 332.559 914.02 323.985 913.909 318.943Z" fill="#BF604B"/>
<path fill-rule="evenodd" clip-rule="evenodd" d="M913.909 318.943C914.02 323.984 914.189 332.595 914.198 337.779C914.207 342.963 913.308 350.176 912.748 354.243C912.748 354.243 903.689 343.897 905.632 334.704C907.527 325.724 913.847 318.841 913.847 318.841L913.909 318.943Z" fill="#A9503C"/>
<path fill-rule="evenodd" clip-rule="evenodd" d="M937.066 406.705C936.016 408.396 926.597 423.196 916.973 427.111C900.109 433.968 889.178 421.927 888.777 421.474C894.559 420.37 904.663 418.239 911.716 415.814C918.77 413.388 930.297 409.206 937.066 406.705Z" fill="#A9503C"/>
<path fill-rule="evenodd" clip-rule="evenodd" d="M937.066 406.705C930.297 409.192 918.73 413.406 911.716 415.813C904.703 418.221 894.537 420.37 888.777 421.473C888.777 421.473 898.561 404.413 911.903 402.785C924.929 401.192 937.168 406.567 937.168 406.567L937.066 406.705Z" fill="#BF604B"/>
<path fill-rule="evenodd" clip-rule="evenodd" d="M903.707 474.786C902.061 476.178 887.408 488.291 876.183 489.109C856.513 490.547 849.259 474.479 848.997 473.878C855.307 474.666 866.452 475.849 874.537 475.707C882.622 475.564 895.897 475.084 903.707 474.786Z" fill="#A9503C"/>
<path fill-rule="evenodd" clip-rule="evenodd" d="M903.707 474.786C895.902 475.088 882.569 475.569 874.533 475.707C866.497 475.845 855.303 474.665 848.992 473.878C848.992 473.878 864.793 459.563 879.082 462.335C893.042 465.045 903.871 474.674 903.871 474.674L903.707 474.786Z" fill="#BF604B"/>
<path fill-rule="evenodd" clip-rule="evenodd" d="M794.865 479.182C793.166 479.738 778.254 484.82 772.798 492.389C763.232 505.653 771.41 517.752 771.721 518.197C773.91 513.4 777.921 505.017 781.536 499.37C785.152 493.724 791.254 484.575 794.865 479.182Z" fill="#A9503C"/>
<path fill-rule="evenodd" clip-rule="evenodd" d="M794.865 479.182C791.258 484.562 785.125 493.768 781.523 499.379C777.921 504.99 773.896 513.409 771.708 518.206C771.708 518.206 788.674 513.276 792.93 501.978C797.088 490.943 795.003 479.115 795.003 479.115L794.865 479.182Z" fill="#BF604B"/>
<path fill-rule="evenodd" clip-rule="evenodd" d="M877.41 357.251C877.103 358.835 874.591 372.825 878.175 380.46C884.459 393.81 897.587 392.657 898.076 392.608C895.248 388.781 890.387 381.929 887.514 376.62C884.641 371.312 880.078 362.452 877.41 357.251Z" fill="#A9503C"/>
<path fill-rule="evenodd" clip-rule="evenodd" d="M877.415 357.246C880.083 362.448 884.659 371.321 887.519 376.616C890.378 381.911 895.253 388.777 898.081 392.604C898.081 392.604 901.612 377.03 894.563 368.74C887.67 360.632 877.441 357.099 877.441 357.099L877.415 357.246Z" fill="#BF604B"/>
<path fill-rule="evenodd" clip-rule="evenodd" d="M787.105 573.81C784.712 573.908 763.574 574.508 752.256 567.402C732.426 554.943 734.685 535.511 734.778 534.79C740.417 539.898 750.504 548.745 758.393 554.262C766.283 559.78 779.389 568.626 787.105 573.81Z" fill="#A9503C"/>
<path fill-rule="evenodd" clip-rule="evenodd" d="M787.104 573.805C779.388 568.626 766.233 559.74 758.393 554.258C750.552 548.776 740.417 539.894 734.778 534.786C734.778 534.786 758.295 533.006 770.498 545.465C782.417 557.64 787.327 573.814 787.327 573.814L787.104 573.805Z" fill="#BF604B"/>
<path fill-rule="evenodd" clip-rule="evenodd" d="M945.929 352.32C945.311 353.588 939.703 364.704 932.885 368.58C920.904 375.374 911.481 368.775 911.134 368.526C915.354 367.031 922.741 364.277 927.798 361.731C932.854 359.186 941.108 354.87 945.929 352.32Z" fill="#A9503C"/>
<path fill-rule="evenodd" clip-rule="evenodd" d="M945.929 352.32C941.095 354.87 932.827 359.204 927.802 361.731C922.777 364.259 915.35 367.031 911.134 368.526C911.134 368.526 916.782 355.853 926.637 353.01C936.261 350.233 946 352.209 946 352.209L945.929 352.32Z" fill="#BF604B"/>
<path fill-rule="evenodd" clip-rule="evenodd" d="M645.166 571.416C643.792 561.627 645.504 546.444 639.345 533.718C633.185 520.992 618.887 514.584 618.887 514.584C618.887 514.584 617.553 525.957 624.936 540.615C628.84 548.375 638.278 561.809 642.751 568.043L645.166 571.416Z" fill="#BF604B"/>
<path fill-rule="evenodd" clip-rule="evenodd" d="M618.87 514.602C618.87 514.602 602.588 527.635 609.384 543.009C617.353 561.035 645.166 571.416 645.166 571.416L642.734 568.061C638.26 561.831 628.823 548.389 624.918 540.633C617.54 525.958 618.87 514.602 618.87 514.602Z" fill="#A9503C"/>
<path fill-rule="evenodd" clip-rule="evenodd" d="M811.822 543.027C805.667 538.528 798.2 529.442 787.86 526.024C777.521 522.607 766.309 527.101 766.309 527.101C766.309 527.101 771.881 533.936 783.942 537.718C790.329 539.721 802.817 541.723 808.665 542.573L811.822 543.027Z" fill="#BF604B"/>
<path fill-rule="evenodd" clip-rule="evenodd" d="M766.309 527.105C766.309 527.105 764.779 543.124 776.925 547.574C791.156 552.829 811.822 543.009 811.822 543.009L808.665 542.564C802.817 541.674 790.329 539.712 783.943 537.709C771.882 533.94 766.309 527.105 766.309 527.105Z" fill="#A9503C"/>
<path fill-rule="evenodd" clip-rule="evenodd" d="M739.51 572.315C735.383 565.088 731.994 552.709 723.215 544.691C714.436 536.672 701.268 536.152 701.268 536.152C701.268 536.152 703.772 545.447 714.103 554.591C719.573 559.433 731.127 566.979 736.566 570.45L739.51 572.315Z" fill="#BF604B"/>
<path fill-rule="evenodd" clip-rule="evenodd" d="M701.273 536.156C701.273 536.156 692.618 551.414 702.718 561.297C714.561 572.867 739.51 572.319 739.51 572.319L736.566 570.459C731.131 566.988 719.573 559.437 714.103 554.6C703.776 545.452 701.273 536.156 701.273 536.156Z" fill="#A9503C"/>
<path fill-rule="evenodd" clip-rule="evenodd" d="M733.849 495.593C731.247 502.209 729.9 513.093 723.46 520.956C717.02 528.819 705.951 530.87 705.951 530.87C705.951 530.87 706.93 522.705 714.539 513.703C718.568 508.937 727.414 501.137 731.585 497.533L733.849 495.593Z" fill="#BF604B"/>
<path fill-rule="evenodd" clip-rule="evenodd" d="M705.951 530.852C705.951 530.852 696.763 519.016 704.092 509.418C712.68 498.165 733.849 495.584 733.849 495.584L731.59 497.519C727.418 501.124 718.572 508.924 714.543 513.69C706.93 522.696 705.951 530.852 705.951 530.852Z" fill="#A9503C"/>
<path fill-rule="evenodd" clip-rule="evenodd" d="M656.738 520.938C660.447 523.141 676.257 531.026 691.871 516.31C701.989 506.775 703.265 492.727 706.547 484.139L679.904 502.672C672.472 507.829 655.938 520.426 655.938 520.426L656.738 520.938Z" fill="#BF604B"/>
<path fill-rule="evenodd" clip-rule="evenodd" d="M703.109 483.761C696.679 483.227 682.705 482.915 673.82 488.909C658.437 499.286 656.289 515.634 655.995 519.559L655.946 520.449C655.946 520.449 672.481 507.852 679.913 502.694C687.344 497.537 706.556 484.161 706.556 484.161L703.109 483.761Z" fill="#A9503C"/>
<path fill-rule="evenodd" clip-rule="evenodd" d="M860.511 450.757C863.366 449.133 872.843 442.187 869.009 426.284C866.523 415.987 859.434 409.308 854.983 403.897L857.175 428.526C857.78 435.392 859.844 451.086 859.844 451.086L860.511 450.757Z" fill="#BF604B"/>
<path fill-rule="evenodd" clip-rule="evenodd" d="M853.426 406.037C850.647 410.091 845.163 419.222 845.772 427.361C846.822 441.457 856.824 449.048 859.305 450.726L859.861 451.086C859.861 451.086 857.776 435.388 857.193 428.526C856.61 421.665 855.001 403.897 855.001 403.897L853.426 406.037Z" fill="#A9503C"/>
<path fill-rule="evenodd" clip-rule="evenodd" d="M824.675 496.954C825.533 500.674 830.145 515.612 849.095 516.622C861.374 517.276 871.126 509.502 878.624 506.361L850.5 500.621C842.66 499.014 824.506 496.118 824.506 496.118L824.675 496.954Z" fill="#A9503C"/>
<path fill-rule="evenodd" clip-rule="evenodd" d="M876.761 503.922C873.172 499.473 864.838 490.342 855.579 488.313C839.569 484.802 827.779 493.412 825.088 495.619L824.506 496.118C824.506 496.118 842.66 499.01 850.5 500.621C858.341 502.232 878.624 506.361 878.624 506.361L876.761 503.922Z" fill="#BF604B"/>
<path fill-rule="evenodd" clip-rule="evenodd" d="M902.528 392.679C904.507 394.771 913.202 402.736 925.943 396.141C934.188 391.869 937.572 383.09 941.246 378.164L920.744 385.186C915.025 387.139 902.101 392.199 902.101 392.199L902.528 392.679Z" fill="#A9503C"/>
<path fill-rule="evenodd" clip-rule="evenodd" d="M939.098 377.292C935.064 375.77 926.148 373.011 919.343 375.232C907.567 379.076 903.195 389.186 902.288 391.651L902.101 392.199C902.101 392.199 915.025 387.139 920.744 385.186C926.463 383.233 941.246 378.164 941.246 378.164L939.098 377.292Z" fill="#BF604B"/>
<path fill-rule="evenodd" clip-rule="evenodd" d="M834.797 477.963C837.91 477.166 847.876 470.056 849.473 456.773C850.727 446.423 844.581 438.351 841.766 432.055L837.421 456.003C836.202 462.678 834.085 478.123 834.085 478.123L834.797 477.963Z" fill="#BF604B"/>
<path fill-rule="evenodd" clip-rule="evenodd" d="M839.742 433.679C836.046 436.794 828.459 444.034 826.912 451.923C824.243 465.579 831.737 475.395 833.658 477.638L834.103 478.123C834.103 478.123 836.22 462.678 837.438 456.003C838.657 449.329 841.774 432.068 841.774 432.068L839.742 433.679Z" fill="#A9503C"/>
<path fill-rule="evenodd" clip-rule="evenodd" d="M693.325 588.254C693.325 588.254 697.266 568.697 689.954 554.529C680.589 536.37 660.042 530.278 655.052 529.041L653.945 528.787C653.945 528.787 662.937 539.912 671.783 552.816C676.204 559.277 681.589 568.136 685.867 575.381L693.325 588.254Z" fill="#BF604B"/>
<path fill-rule="evenodd" clip-rule="evenodd" d="M652.931 532.472C651.299 539.387 648.986 554.529 656.618 565.044C666.798 579.065 693.325 588.254 693.325 588.254L685.872 575.381C681.594 568.136 676.208 559.277 671.787 552.816C662.942 539.912 653.949 528.787 653.949 528.787L652.931 532.472Z" fill="#A9503C"/>
<path fill-rule="evenodd" clip-rule="evenodd" d="M882.066 336.066C882.066 336.066 893.185 337.156 899.597 343.399C907.798 351.408 907.696 363.422 907.545 366.306L907.5 366.942C907.5 366.942 903.017 360.294 897.538 353.428C894.799 349.998 890.934 345.655 887.754 342.171L882.066 336.066Z" fill="#BF604B"/>
<path fill-rule="evenodd" clip-rule="evenodd" d="M905.348 366.884C901.372 366.626 892.895 365.385 888.488 359.569C882.64 351.809 882.062 336.066 882.062 336.066L887.746 342.184C890.93 345.668 894.794 350.011 897.53 353.442C903.009 360.308 907.491 366.956 907.491 366.956L905.348 366.884Z" fill="#A9503C"/>
<path fill-rule="evenodd" clip-rule="evenodd" d="M851.572 542.315C851.572 542.315 847.529 526.296 836.998 518.286C823.501 508.052 805.956 510.846 801.78 511.705L800.86 511.91C800.86 511.91 811.56 517.005 822.794 523.506C828.411 526.758 835.606 531.457 841.396 535.346L851.572 542.315Z" fill="#BF604B"/>
<path fill-rule="evenodd" clip-rule="evenodd" d="M801.42 515.038C802.67 520.796 806.352 532.948 815.82 538.087C828.446 544.935 851.572 542.315 851.572 542.315L841.396 535.351C835.615 531.462 828.411 526.763 822.794 523.51C811.56 517.009 800.86 511.914 800.86 511.914L801.42 515.038Z" fill="#A9503C"/>
<path fill-rule="evenodd" clip-rule="evenodd" d="M863.526 377.297C863.526 377.297 876.187 382.036 881.72 391.318C888.808 403.216 884.953 417.233 883.881 420.548L883.632 421.278C883.632 421.278 880.461 412.116 876.196 402.393C874.061 397.534 870.895 391.269 868.262 386.196L863.526 377.297Z" fill="#BF604B"/>
<path fill-rule="evenodd" clip-rule="evenodd" d="M881.146 420.539C876.583 419.004 867.044 414.91 863.73 406.745C859.31 395.861 863.53 377.297 863.53 377.297L868.267 386.196C870.899 391.255 874.048 397.53 876.201 402.393C880.465 412.116 883.636 421.278 883.636 421.278L881.146 420.539Z" fill="#A9503C"/>
<path fill-rule="evenodd" clip-rule="evenodd" d="M819.912 451.745C819.912 451.745 826.703 465.294 824.172 477.14C820.93 492.322 807.086 500.892 803.675 502.797L802.914 503.206C802.914 503.206 807.29 493.265 811.195 482.025C813.147 476.405 815.327 468.836 817.021 462.669L819.912 451.745Z" fill="#BF604B"/>
<path fill-rule="evenodd" clip-rule="evenodd" d="M801.429 500.705C798.854 495.962 794.136 485.323 797.631 476.09C802.292 463.777 819.907 451.75 819.907 451.75L817.012 462.674C815.322 468.841 813.139 476.41 811.186 482.03C807.282 493.27 802.906 503.211 802.906 503.211L801.429 500.705Z" fill="#A9503C"/>
<path fill-rule="evenodd" clip-rule="evenodd" d="M921.816 441.199C921.816 441.199 909.226 432.767 897.165 433.804C881.702 435.139 871.478 447.807 869.147 450.953L868.649 451.656C868.649 451.656 879.056 448.541 890.685 446.076C896.502 444.839 904.28 443.62 910.604 442.708L921.816 441.199Z" fill="#BF604B"/>
<path fill-rule="evenodd" clip-rule="evenodd" d="M870.962 453.427C875.342 456.577 885.304 462.584 894.897 460.266C907.687 457.151 921.811 441.186 921.811 441.186L910.618 442.699C904.294 443.589 896.516 444.83 890.699 446.067C879.065 448.541 868.662 451.647 868.662 451.647L870.962 453.427Z" fill="#A9503C"/>
<path fill-rule="evenodd" clip-rule="evenodd" d="M768.368 475.364C768.368 475.364 772.869 491.695 767.523 504.136C760.67 520.079 743.633 526.465 739.479 527.813L738.554 528.093C738.554 528.093 745.509 518.144 752.229 506.668C755.591 500.932 759.625 493.105 762.818 486.715L768.368 475.364Z" fill="#BF604B"/>
<path fill-rule="evenodd" clip-rule="evenodd" d="M737.478 525.023C735.699 519.265 732.821 506.575 738.661 497.212C746.448 484.726 768.368 475.369 768.368 475.369L762.822 486.72C759.629 493.11 755.596 500.959 752.234 506.672C745.514 518.148 738.558 528.098 738.558 528.098L737.478 525.023Z" fill="#A9503C"/>
<path fill-rule="evenodd" clip-rule="evenodd" d="M31.9891 354.198C37.3868 376.503 45.5892 398.034 56.4 418.274C66.1839 436.549 79.3256 455.923 96.8699 473.646C127.792 504.848 168.76 529.268 216.421 534.861C256.032 539.502 300.269 531.15 347.241 502.823C347.89 502.429 348.355 501.793 348.535 501.056C348.716 500.318 348.595 499.539 348.202 498.89C347.808 498.241 347.172 497.775 346.435 497.595C345.698 497.414 344.919 497.535 344.27 497.929C298.69 525.962 255.614 534.537 216.928 530.345C170.152 525.277 129.82 501.595 99.2359 471.27C81.7449 453.916 68.6032 434.912 58.7971 416.957C47.9206 397.004 39.6152 375.751 34.0793 353.709C34.0507 353.566 33.9937 353.432 33.9117 353.312C33.8298 353.193 33.7245 353.091 33.6023 353.013C33.4801 352.935 33.3434 352.883 33.2005 352.859C33.0576 352.835 32.9113 352.841 32.7705 352.875C32.6297 352.909 32.4973 352.971 32.3811 353.058C32.2649 353.144 32.1674 353.254 32.0945 353.379C32.0215 353.504 31.9746 353.643 31.9564 353.787C31.9383 353.93 31.9494 354.076 31.9891 354.216V354.198Z" fill="#A9503C"/>
<path fill-rule="evenodd" clip-rule="evenodd" d="M273.63 466.598C276.21 466.54 298.979 466.296 310.057 473.989C329.465 487.472 324.133 507.905 323.924 508.666C318.641 503.179 309.141 493.679 301.505 487.721C293.87 481.763 281.128 472.196 273.63 466.598Z" fill="#A9503C"/>
<path fill-rule="evenodd" clip-rule="evenodd" d="M273.63 466.598C281.133 472.196 293.914 481.798 301.505 487.717C309.097 493.635 318.641 503.175 323.924 508.661C323.924 508.661 298.428 510.094 287.203 496.745C276.236 483.703 273.417 466.576 273.417 466.576L273.63 466.598Z" fill="#BF604B"/>
<path fill-rule="evenodd" clip-rule="evenodd" d="M32.0957 318.943C31.2063 320.02 23.5614 329.622 23.1523 336.858C22.4363 349.566 32.8651 354.078 33.2564 354.243C32.6827 350.18 31.8022 342.998 31.8066 337.779C31.8111 332.559 31.9845 323.985 32.0957 318.943Z" fill="#BF604B"/>
<path fill-rule="evenodd" clip-rule="evenodd" d="M32.0958 318.943C31.9846 323.984 31.8156 332.595 31.8067 337.779C31.7978 342.963 32.6962 350.176 33.2565 354.243C33.2565 354.243 42.3155 343.897 40.3721 334.704C38.4954 325.72 32.1758 318.841 32.1758 318.841L32.0958 318.943Z" fill="#A9503C"/>
<path fill-rule="evenodd" clip-rule="evenodd" d="M8.93457 406.705C9.98412 408.396 19.4034 423.196 29.0272 427.111C45.8912 433.968 56.8225 421.927 57.2228 421.474C51.4413 420.37 41.3372 418.239 34.2839 415.814C27.2305 413.388 15.7033 409.206 8.93457 406.705Z" fill="#A9503C"/>
<path fill-rule="evenodd" clip-rule="evenodd" d="M8.93456 406.705C15.7033 409.192 27.2705 413.406 34.2839 415.813C41.2972 418.221 51.4636 420.37 57.2227 421.473C57.2227 421.473 47.4388 404.413 34.0971 402.785C21.0711 401.192 8.83228 406.567 8.83228 406.567L8.93456 406.705Z" fill="#BF604B"/>
<path fill-rule="evenodd" clip-rule="evenodd" d="M42.2977 474.786C43.9432 476.178 58.5969 488.291 69.8217 489.109C89.4919 490.547 96.7453 474.479 97.0077 473.878C90.6971 474.666 79.5523 475.849 71.4672 475.707C63.3821 475.564 50.1026 475.084 42.2977 474.786Z" fill="#A9503C"/>
<path fill-rule="evenodd" clip-rule="evenodd" d="M42.2977 474.786C50.1026 475.088 63.4355 475.569 71.4717 475.707C79.5078 475.845 90.7015 474.665 97.0122 473.878C97.0122 473.878 81.2111 459.563 66.9221 462.335C52.9622 465.045 42.1332 474.674 42.1332 474.674L42.2977 474.786Z" fill="#BF604B"/>
<path fill-rule="evenodd" clip-rule="evenodd" d="M151.14 479.182C152.838 479.738 167.75 484.82 173.207 492.389C182.773 505.653 174.594 517.752 174.283 518.197C172.108 513.409 168.106 505.044 164.472 499.375C160.839 493.706 154.764 484.575 151.14 479.182Z" fill="#A9503C"/>
<path fill-rule="evenodd" clip-rule="evenodd" d="M151.14 479.182C154.746 484.562 160.879 493.768 164.481 499.379C168.084 504.99 172.108 513.409 174.296 518.206C174.296 518.206 157.33 513.276 153.074 501.978C148.916 490.943 151.002 479.115 151.002 479.115L151.14 479.182Z" fill="#BF604B"/>
<path fill-rule="evenodd" clip-rule="evenodd" d="M68.5898 357.251C68.8967 358.835 71.4094 372.825 67.8249 380.46C61.5409 393.81 48.4127 392.657 47.9235 392.608C50.7519 388.781 55.6127 381.929 58.4857 376.62C61.3586 371.312 65.9215 362.452 68.5898 357.251Z" fill="#A9503C"/>
<path fill-rule="evenodd" clip-rule="evenodd" d="M68.5898 357.246C65.9215 362.448 61.3453 371.321 58.4857 376.616C55.6261 381.911 50.752 388.777 47.9235 392.604C47.9235 392.604 44.3924 377.03 51.4413 368.74C58.3301 360.628 68.5765 357.099 68.5765 357.099L68.5898 357.246Z" fill="#BF604B"/>
<path fill-rule="evenodd" clip-rule="evenodd" d="M158.896 573.81C161.288 573.908 182.426 574.508 193.744 567.402C213.574 554.943 211.315 535.511 211.222 534.79C205.583 539.898 195.496 548.745 187.607 554.262C179.718 559.78 166.612 568.626 158.896 573.81Z" fill="#A9503C"/>
<path fill-rule="evenodd" clip-rule="evenodd" d="M158.896 573.805C166.612 568.626 179.766 559.74 187.607 554.258C195.447 548.776 205.583 539.894 211.222 534.786C211.222 534.786 187.705 533.006 175.502 545.465C163.583 557.64 158.673 573.814 158.673 573.814L158.896 573.805Z" fill="#BF604B"/>
<path fill-rule="evenodd" clip-rule="evenodd" d="M0.0622559 352.32C0.680423 353.588 6.2884 364.704 13.106 368.58C25.0869 375.374 34.5106 368.775 34.8575 368.526C30.6415 367.031 23.2502 364.277 18.1937 361.731C13.1372 359.186 4.89196 354.87 0.0622559 352.32Z" fill="#A9503C"/>
<path fill-rule="evenodd" clip-rule="evenodd" d="M0.0622614 352.32C4.89197 354.87 13.1638 359.204 18.1892 361.736C23.2146 364.268 30.6415 367.036 34.8575 368.531C34.8575 368.531 29.2095 355.858 19.3544 353.015C9.73947 350.229 0 352.205 0 352.205L0.0622614 352.32Z" fill="#BF604B"/>
<path fill-rule="evenodd" clip-rule="evenodd" d="M300.838 571.416C302.213 561.627 300.5 546.444 306.66 533.718C312.819 520.992 327.117 514.584 327.117 514.584C327.117 514.584 328.451 525.957 321.069 540.615C317.164 548.375 307.727 561.809 303.253 568.043L300.838 571.416Z" fill="#BF604B"/>
<path fill-rule="evenodd" clip-rule="evenodd" d="M327.135 514.602C327.135 514.602 343.416 527.635 336.621 543.009C328.651 561.035 300.838 571.416 300.838 571.416L303.271 568.061C307.745 561.831 317.182 548.389 321.087 540.633C328.465 525.958 327.135 514.602 327.135 514.602Z" fill="#A9503C"/>
<path fill-rule="evenodd" clip-rule="evenodd" d="M134.178 543.027C140.333 538.528 147.8 529.442 158.139 526.024C168.479 522.607 179.691 527.101 179.691 527.101C179.691 527.101 174.118 533.936 162.058 537.718C155.671 539.721 143.183 541.723 137.335 542.573L134.178 543.027Z" fill="#BF604B"/>
<path fill-rule="evenodd" clip-rule="evenodd" d="M179.695 527.105C179.695 527.105 181.225 543.124 169.08 547.574C154.849 552.829 134.182 543.009 134.182 543.009L137.34 542.564C143.188 541.674 155.676 539.712 162.062 537.709C174.119 533.94 179.695 527.105 179.695 527.105Z" fill="#A9503C"/>
<path fill-rule="evenodd" clip-rule="evenodd" d="M206.49 572.315C210.617 565.088 214.006 552.709 222.785 544.691C231.564 536.672 244.732 536.152 244.732 536.152C244.732 536.152 242.228 545.447 231.897 554.591C226.427 559.433 214.873 566.979 209.434 570.45L206.49 572.315Z" fill="#BF604B"/>
<path fill-rule="evenodd" clip-rule="evenodd" d="M244.727 536.156C244.727 536.156 253.382 551.414 243.282 561.297C231.439 572.867 206.49 572.319 206.49 572.319L209.434 570.459C214.869 566.988 226.427 559.437 231.897 554.6C242.224 545.452 244.727 536.156 244.727 536.156Z" fill="#A9503C"/>
<path fill-rule="evenodd" clip-rule="evenodd" d="M212.134 495.593C214.735 502.209 216.083 513.093 222.522 520.956C228.962 528.819 240.049 530.852 240.049 530.852C240.049 530.852 239.07 522.687 231.461 513.685C227.432 508.919 218.586 501.119 214.415 497.515L212.134 495.593Z" fill="#BF604B"/>
<path fill-rule="evenodd" clip-rule="evenodd" d="M240.049 530.852C240.049 530.852 249.237 519.016 241.908 509.418C233.32 498.165 212.151 495.584 212.151 495.584L214.411 497.519C218.582 501.124 227.428 508.924 231.457 513.69C239.071 522.696 240.049 530.852 240.049 530.852Z" fill="#A9503C"/>
<path fill-rule="evenodd" clip-rule="evenodd" d="M289.262 520.938C285.553 523.141 269.743 531.026 254.129 516.31C244.011 506.775 242.735 492.727 239.453 484.139L266.096 502.672C273.528 507.829 290.063 520.426 290.063 520.426L289.262 520.938Z" fill="#BF604B"/>
<path fill-rule="evenodd" clip-rule="evenodd" d="M242.913 483.761C249.344 483.227 263.317 482.915 272.202 488.909C287.585 499.286 289.734 515.634 290.027 519.559L290.076 520.449C290.076 520.449 273.541 507.852 266.11 502.694C258.678 497.537 239.466 484.13 239.466 484.13L242.913 483.761Z" fill="#A9503C"/>
<path fill-rule="evenodd" clip-rule="evenodd" d="M85.4894 450.757C82.6343 449.133 73.1572 442.187 76.9907 426.284C79.4767 415.987 86.5656 409.308 91.0173 403.897L88.8248 428.509C88.22 435.374 86.1565 451.069 86.1565 451.069L85.4894 450.757Z" fill="#BF604B"/>
<path fill-rule="evenodd" clip-rule="evenodd" d="M92.5694 406.037C95.349 410.091 100.832 419.222 100.223 427.361C99.1736 441.457 89.1717 449.048 86.6902 450.726L86.1343 451.086C86.1343 451.086 88.22 435.388 88.8026 428.526C89.3852 421.665 90.9951 403.897 90.9951 403.897L92.5694 406.037Z" fill="#A9503C"/>
<path fill-rule="evenodd" clip-rule="evenodd" d="M121.33 496.954C120.471 500.674 115.86 515.612 96.91 516.622C84.6311 517.276 74.8783 509.502 67.3802 506.361L95.5046 500.621C103.345 499.014 121.499 496.118 121.499 496.118L121.33 496.954Z" fill="#A9503C"/>
<path fill-rule="evenodd" clip-rule="evenodd" d="M69.2436 503.922C72.8325 499.473 81.1666 490.342 90.4258 488.313C106.436 484.802 118.226 493.412 120.916 495.619L121.499 496.118C121.499 496.118 103.345 499.01 95.5046 500.621C87.6641 502.232 67.3757 506.379 67.3757 506.379L69.2436 503.922Z" fill="#BF604B"/>
<path fill-rule="evenodd" clip-rule="evenodd" d="M43.4763 392.679C41.4972 394.771 32.8029 402.736 20.0615 396.141C11.8163 391.869 8.43197 383.09 4.75854 378.164L25.2603 385.186C30.9795 387.139 43.9032 392.199 43.9032 392.199L43.4763 392.679Z" fill="#A9503C"/>
<path fill-rule="evenodd" clip-rule="evenodd" d="M6.90212 377.292C10.9358 375.77 19.8525 373.011 26.6568 375.232C38.4331 379.076 42.8047 389.186 43.712 391.651L43.8987 392.199C43.8987 392.199 30.9795 387.126 25.2603 385.19C19.5412 383.255 4.75854 378.169 4.75854 378.169L6.90212 377.292Z" fill="#BF604B"/>
<path fill-rule="evenodd" clip-rule="evenodd" d="M111.203 477.963C108.09 477.166 98.124 470.056 96.5275 456.773C95.2733 446.423 101.419 438.351 104.235 432.055L108.579 456.003C109.798 462.678 111.915 478.123 111.915 478.123L111.203 477.963Z" fill="#BF604B"/>
<path fill-rule="evenodd" clip-rule="evenodd" d="M106.258 433.679C109.954 436.794 117.541 444.034 119.088 451.923C121.757 465.579 114.263 475.395 112.342 477.638L111.897 478.123C111.897 478.123 109.78 462.678 108.562 456.003C107.343 449.329 104.226 432.068 104.226 432.068L106.258 433.679Z" fill="#A9503C"/>
<path fill-rule="evenodd" clip-rule="evenodd" d="M252.679 588.254C252.679 588.254 248.739 568.697 256.05 554.529C265.416 536.37 285.962 530.278 290.952 529.041L292.059 528.787C292.059 528.787 283.067 539.912 274.221 552.816C269.801 559.277 264.415 568.136 260.137 575.381L252.679 588.254Z" fill="#BF604B"/>
<path fill-rule="evenodd" clip-rule="evenodd" d="M293.073 532.472C294.706 539.387 297.018 554.529 289.387 565.044C279.211 579.065 252.684 588.245 252.684 588.245L260.137 575.372C264.415 568.127 269.801 559.268 274.222 552.807C283.067 539.903 292.059 528.779 292.059 528.779L293.073 532.472Z" fill="#A9503C"/>
<path fill-rule="evenodd" clip-rule="evenodd" d="M63.9336 336.066C63.9336 336.066 52.8155 337.156 46.4026 343.399C38.2019 351.408 38.3041 363.422 38.4553 366.306L38.4998 366.942C38.4998 366.942 42.9826 360.294 48.4616 353.428C51.2012 349.998 55.0658 345.655 58.2456 342.171L63.9336 336.066Z" fill="#BF604B"/>
<path fill-rule="evenodd" clip-rule="evenodd" d="M40.6523 366.884C44.6281 366.626 53.1046 365.385 57.5118 359.569C63.3599 351.809 63.9381 336.066 63.9381 336.066L58.259 342.184C55.0747 345.668 51.2101 350.011 48.475 353.442C42.996 360.308 38.5132 366.956 38.5132 366.956L40.6523 366.884Z" fill="#A9503C"/>
<path fill-rule="evenodd" clip-rule="evenodd" d="M94.4283 542.315C94.4283 542.315 98.4709 526.296 109.002 518.286C122.499 508.052 140.044 510.846 144.22 511.705L145.14 511.91C145.14 511.91 134.44 517.005 123.206 523.506C117.59 526.758 110.394 531.457 104.604 535.346L94.4283 542.315Z" fill="#BF604B"/>
<path fill-rule="evenodd" clip-rule="evenodd" d="M144.58 515.038C143.33 520.796 139.648 532.948 130.18 538.087C117.554 544.935 94.4283 542.315 94.4283 542.315L104.604 535.351C110.385 531.462 117.59 526.763 123.206 523.51C134.44 517.009 145.14 511.914 145.14 511.914L144.58 515.038Z" fill="#A9503C"/>
<path fill-rule="evenodd" clip-rule="evenodd" d="M82.4742 377.297C82.4742 377.297 69.8218 382.031 64.2805 391.318C57.1916 403.216 61.0473 417.233 62.1191 420.548L62.3682 421.278C62.3682 421.278 65.5391 412.116 69.804 402.393C71.9387 397.534 75.1051 391.269 77.7379 386.196L82.4742 377.297Z" fill="#BF604B"/>
<path fill-rule="evenodd" clip-rule="evenodd" d="M64.8586 420.539C69.4215 419.004 78.9608 414.91 82.274 406.745C86.6946 395.861 82.4741 377.297 82.4741 377.297L77.7378 386.196C75.1051 391.255 71.9564 397.53 69.804 402.393C65.539 412.116 62.3682 421.278 62.3682 421.278L64.8586 420.539Z" fill="#A9503C"/>
<path fill-rule="evenodd" clip-rule="evenodd" d="M126.093 451.745C126.093 451.745 119.302 465.294 121.832 477.14C125.074 492.322 138.919 500.892 142.33 502.797L143.09 503.206C143.09 503.206 138.714 493.265 134.809 482.025C132.857 476.405 130.678 468.836 128.983 462.669L126.093 451.745Z" fill="#BF604B"/>
<path fill-rule="evenodd" clip-rule="evenodd" d="M144.571 500.705C147.146 495.962 151.865 485.323 148.369 476.09C143.708 463.777 126.093 451.75 126.093 451.75L128.988 462.674C130.678 468.841 132.861 476.41 134.814 482.03C138.719 493.27 143.095 503.211 143.095 503.211L144.571 500.705Z" fill="#A9503C"/>
<path fill-rule="evenodd" clip-rule="evenodd" d="M24.1841 441.199C24.1841 441.199 36.7742 432.767 48.8352 433.804C64.2982 435.139 74.5224 447.807 76.8528 450.953L77.3509 451.656C77.3509 451.656 66.9443 448.541 55.3148 446.076C49.4978 444.839 41.7196 443.62 35.3956 442.708L24.1841 441.199Z" fill="#BF604B"/>
<path fill-rule="evenodd" clip-rule="evenodd" d="M75.0384 453.427C70.6579 456.577 60.696 462.584 51.1033 460.266C38.3131 457.151 24.1886 441.186 24.1886 441.186L35.3823 442.699C41.7063 443.589 49.4845 444.83 55.3015 446.067C66.9355 448.532 77.3376 451.647 77.3376 451.647L75.0384 453.427Z" fill="#A9503C"/>
<path fill-rule="evenodd" clip-rule="evenodd" d="M177.632 475.364C177.632 475.364 173.131 491.695 178.477 504.136C185.33 520.079 202.367 526.465 206.521 527.813L207.446 528.093C207.446 528.093 200.491 518.144 193.771 506.668C190.409 500.932 186.375 493.105 183.182 486.715L177.632 475.364Z" fill="#BF604B"/>
<path fill-rule="evenodd" clip-rule="evenodd" d="M208.522 525.023C210.301 519.265 213.179 506.575 207.339 497.212C199.552 484.726 177.632 475.369 177.632 475.369L183.178 486.72C186.371 493.11 190.404 500.959 193.766 506.672C200.486 518.148 207.442 528.098 207.442 528.098L208.522 525.023Z" fill="#A9503C"/>
<path fill-rule="evenodd" clip-rule="evenodd" d="M225.32 126.59C217.448 143.339 204.769 174.46 197.551 213.881C192.566 241.135 190.191 272.323 193.806 305.505C200.17 363.885 222.682 423.552 267.862 469.094C305.41 506.944 358.617 535.066 431.294 544.58C431.808 544.683 432.338 544.678 432.851 544.567C433.363 544.456 433.848 544.241 434.274 543.935C434.699 543.628 435.058 543.237 435.326 542.786C435.594 542.335 435.767 541.834 435.833 541.313C435.899 540.793 435.857 540.264 435.71 539.76C435.563 539.256 435.314 538.788 434.978 538.385C434.643 537.982 434.228 537.652 433.759 537.416C433.29 537.181 432.778 537.044 432.254 537.015C361.267 528.356 309.101 501.417 272.154 464.827C227.468 420.561 205 362.208 198.263 305.024C194.407 272.319 196.484 241.496 201.18 214.552C207.989 175.435 220.303 144.487 227.939 127.827C228.1 127.482 228.117 127.086 227.987 126.728C227.856 126.369 227.589 126.077 227.243 125.916C226.898 125.755 226.502 125.738 226.144 125.869C225.786 125.999 225.494 126.267 225.333 126.613L225.32 126.59Z" fill="#A9503C"/>
<path fill-rule="evenodd" clip-rule="evenodd" d="M384.442 445.386C387.19 447.473 411.197 466.184 416.378 483.458C425.45 513.716 402.871 530.625 402.022 531.266C401.061 521.125 399.038 503.286 396.009 490.693C393.003 478.172 387.626 457.49 384.442 445.386Z" fill="#A9503C"/>
<path fill-rule="evenodd" clip-rule="evenodd" d="M384.442 445.386C387.626 457.49 393.003 478.172 396.005 490.689C399.033 503.282 401.052 521.125 402.013 531.266H401.991C401.991 531.266 374.142 511.527 373.528 488.215C372.915 465.446 384.202 445.168 384.202 445.168L384.442 445.386Z" fill="#BF604B"/>
<path fill-rule="evenodd" clip-rule="evenodd" d="M254.778 89.8044C252.964 90.196 236.989 93.8403 230.523 101.08C219.196 113.771 226.351 127.178 226.623 127.672C229.402 122.946 234.459 114.705 238.808 109.254C243.157 103.803 250.464 94.9839 254.778 89.8044Z" fill="#BF604B"/>
<path fill-rule="evenodd" clip-rule="evenodd" d="M254.778 89.8044C250.464 94.9794 243.126 103.843 238.804 109.259C234.481 114.674 229.402 122.95 226.618 127.676C226.618 127.676 244.701 124.405 250.322 113.179C255.814 102.215 254.934 89.7465 254.934 89.7465L254.778 89.8044Z" fill="#A9503C"/>
<path fill-rule="evenodd" clip-rule="evenodd" d="M157.526 162.286C157.214 164.929 154.751 188.25 161.555 200.358C173.478 221.574 194.909 218.09 195.728 217.952C190.622 211.998 181.812 201.337 176.453 192.922C171.094 184.508 162.533 170.522 157.526 162.286Z" fill="#A9503C"/>
<path fill-rule="evenodd" clip-rule="evenodd" d="M157.526 162.286C162.533 170.522 171.121 184.566 176.449 192.927C181.777 201.288 190.618 212.003 195.723 217.956C195.723 217.956 199.672 191.952 187.087 179.141C174.794 166.629 157.526 162.046 157.526 162.046V162.286Z" fill="#BF604B"/>
<path fill-rule="evenodd" clip-rule="evenodd" d="M135.77 261.23C136.33 264.056 141.551 288.925 152.629 299.137C172.002 317.025 192.953 306.257 193.731 305.861C186.477 301.411 173.843 293.401 165.509 286.496C157.174 279.59 143.682 268.051 135.77 261.23Z" fill="#A9503C"/>
<path fill-rule="evenodd" clip-rule="evenodd" d="M135.77 261.23C143.682 268.047 157.223 279.656 165.504 286.496C173.785 293.335 186.477 301.424 193.731 305.861C193.731 305.861 189.123 277.73 171.873 268.728C155.022 259.935 135.69 260.981 135.69 260.981L135.77 261.23Z" fill="#BF604B"/>
<path fill-rule="evenodd" clip-rule="evenodd" d="M245.906 356.503C247.24 358.497 258.581 376.233 257.989 388.692C256.953 410.527 238.328 416.374 237.634 416.583C239.337 409.744 242.121 397.636 243.042 388.724C243.962 379.811 245.203 365.131 245.906 356.503Z" fill="#A9503C"/>
<path fill-rule="evenodd" clip-rule="evenodd" d="M245.906 356.503C245.199 365.131 243.954 379.868 243.042 388.728C242.13 397.587 239.342 409.748 237.634 416.588C237.634 416.588 223.999 397.298 228.953 381.942C233.787 366.942 245.808 356.307 245.808 356.307L245.906 356.503Z" fill="#BF604B"/>
<path fill-rule="evenodd" clip-rule="evenodd" d="M261.053 160.257C260.053 162.166 251.034 178.901 240.938 183.889C223.256 192.624 210.497 180.472 210.026 180.014C216.167 178.367 226.925 175.27 234.374 172.093C241.823 168.916 253.938 163.474 261.053 160.257Z" fill="#A9503C"/>
<path fill-rule="evenodd" clip-rule="evenodd" d="M261.053 160.252C253.938 163.47 241.765 168.934 234.37 172.089C226.974 175.244 216.163 178.363 210.021 180.009C210.021 180.009 219.276 160.8 233.556 157.992C247.507 155.251 261.155 160.092 261.155 160.092L261.053 160.252Z" fill="#BF604B"/>
<path fill-rule="evenodd" clip-rule="evenodd" d="M175.279 461.881C177.698 463.977 199.294 482.212 217.043 484.21C248.138 487.708 261.96 465.521 262.454 464.671C252.305 465.317 234.405 466.162 221.562 465.357C208.803 464.582 187.674 462.909 175.279 461.881Z" fill="#A9503C"/>
<path fill-rule="evenodd" clip-rule="evenodd" d="M175.279 461.881C187.656 462.892 208.802 464.551 221.562 465.361C234.401 466.162 252.305 465.321 262.476 464.676V464.654C262.476 464.654 239.351 443.21 216.225 446.076C193.633 448.875 175.043 461.695 175.043 461.695L175.279 461.881Z" fill="#BF604B"/>
<path fill-rule="evenodd" clip-rule="evenodd" d="M193.513 98.0186C193.104 99.8563 189.697 116.133 193.62 125.883C200.491 142.965 215.834 143.917 216.403 143.949C213.236 138.871 207.802 129.834 204.631 122.959C201.46 116.084 196.444 104.711 193.513 98.0186Z" fill="#A9503C"/>
<path fill-rule="evenodd" clip-rule="evenodd" d="M193.513 98.0141C196.444 104.689 201.482 116.124 204.631 122.959C207.78 129.794 213.236 138.871 216.403 143.949C216.403 143.949 221.046 125.989 213.108 114.812C205.356 103.892 193.54 97.845 193.54 97.845L193.513 98.0141Z" fill="#BF604B"/>
<path fill-rule="evenodd" clip-rule="evenodd" d="M325.667 577.641C335.26 568.537 346.093 551.25 363.122 543.076C380.15 534.901 400.434 540.148 400.434 540.148C400.434 540.148 392.363 553.145 372.452 562.325C361.912 567.184 340.877 573.369 331 576.159L325.667 577.641Z" fill="#BF604B"/>
<path fill-rule="evenodd" clip-rule="evenodd" d="M400.439 540.148C400.439 540.148 406.616 567.34 386.719 577.748C363.389 589.953 325.672 577.641 325.672 577.641L331.008 576.159C340.872 573.369 361.921 567.184 372.461 562.325C392.362 553.145 400.439 540.148 400.439 540.148Z" fill="#A9503C"/>
<path fill-rule="evenodd" clip-rule="evenodd" d="M175.048 409.125C185.223 409.57 200.593 406.273 214.25 411.315C227.908 416.356 235.886 430.395 235.886 430.395C235.886 430.395 224.372 432.9 208.616 426.804C200.277 423.578 185.566 415.235 178.73 411.284L175.048 409.125Z" fill="#BF604B"/>
<path fill-rule="evenodd" clip-rule="evenodd" d="M235.882 430.395C235.882 430.395 224.163 448.399 207.735 442.97C188.474 436.603 175.048 409.125 175.048 409.125L178.73 411.284C185.566 415.248 200.277 423.578 208.616 426.804C224.368 432.9 235.882 430.395 235.882 430.395Z" fill="#A9503C"/>
<path fill-rule="evenodd" clip-rule="evenodd" d="M226.28 499.989C236.607 495.873 250.455 485.75 266.305 484.682C282.155 483.614 296.355 494.026 296.355 494.026C296.355 494.026 286.002 501.658 267.595 502.614C257.851 503.122 239.488 501.386 230.914 500.487L226.28 499.989Z" fill="#BF604B"/>
<path fill-rule="evenodd" clip-rule="evenodd" d="M296.347 494.035C296.347 494.035 292.695 517.174 273.915 519.114C251.892 521.365 226.276 499.98 226.276 499.98L230.901 500.487C239.475 501.377 257.838 503.121 267.582 502.614C285.993 501.666 296.347 494.035 296.347 494.035Z" fill="#A9503C"/>
<path fill-rule="evenodd" clip-rule="evenodd" d="M296.04 424.504C293.256 433.586 285.611 446.089 285.811 459.656C286.011 473.224 295.866 484.606 295.866 484.606C295.866 484.606 301.648 475.262 301.172 459.505C300.923 451.166 298.165 435.646 296.805 428.402L296.04 424.504Z" fill="#BF604B"/>
<path fill-rule="evenodd" clip-rule="evenodd" d="M295.857 484.602C295.857 484.602 315.314 479.881 315.639 463.742C316.021 444.821 296.04 424.49 296.04 424.49L296.791 428.397C298.152 435.637 300.909 451.162 301.158 459.501C301.63 475.231 295.857 484.602 295.857 484.602Z" fill="#A9503C"/>
<path fill-rule="evenodd" clip-rule="evenodd" d="M355.575 515.225C349.865 514.437 326.775 509.511 322.692 481.118C320.05 462.718 330.39 446.984 334.13 435.285L346.583 476.855C350.06 488.424 356.869 515.385 356.869 515.385L355.575 515.225Z" fill="#BF604B"/>
<path fill-rule="evenodd" clip-rule="evenodd" d="M338.048 437.742C345.217 442.543 360.089 453.854 364.389 467.524C371.839 491.187 360.48 510.067 357.523 514.419L356.851 515.367C356.851 515.367 350.043 488.424 346.565 476.837C343.087 465.25 334.113 435.268 334.113 435.268L338.048 437.742Z" fill="#A9503C"/>
<path fill-rule="evenodd" clip-rule="evenodd" d="M200.931 272.083C199.299 268.007 195.149 252.847 212.4 239.431C223.563 230.736 236.536 229.641 245.692 227.71L222.909 251.632C216.563 258.307 201.322 272.991 201.322 272.991L200.931 272.083Z" fill="#BF604B"/>
<path fill-rule="evenodd" clip-rule="evenodd" d="M245.537 231.239C245.07 237.793 243.206 251.903 235.793 259.913C222.963 273.774 206.192 273.382 202.203 273.071L201.313 272.982C201.313 272.982 216.554 258.298 222.9 251.623C229.246 244.948 245.684 227.701 245.684 227.701L245.537 231.239Z" fill="#A9503C"/>
<path fill-rule="evenodd" clip-rule="evenodd" d="M199.948 350.251C195.946 353.424 178.704 365.202 158.051 350.474C144.669 340.929 140.924 324.696 135.712 315.147L169.885 332.572C179.42 337.423 200.806 349.521 200.806 349.521L199.948 350.251Z" fill="#A9503C"/>
<path fill-rule="evenodd" clip-rule="evenodd" d="M139.692 314.151C147.141 312.495 163.458 309.883 174.826 315.486C194.509 325.168 199.646 343.964 200.62 348.525L200.815 349.535C200.815 349.535 179.428 337.423 169.885 332.572C160.341 327.722 135.703 315.143 135.703 315.143L139.692 314.151Z" fill="#BF604B"/>
<path fill-rule="evenodd" clip-rule="evenodd" d="M205.32 176.378C201.509 176.917 185.779 177.985 177.961 160.497C172.895 149.164 176.662 137.163 176.92 128.953L192.512 153.373C196.866 160.177 206.165 176.236 206.165 176.236L205.32 176.378Z" fill="#A9503C"/>
<path fill-rule="evenodd" clip-rule="evenodd" d="M179.887 129.825C185.37 131.605 196.991 136.139 202.252 144.127C211.364 157.961 207.522 172.16 206.419 175.506L206.161 176.236C206.161 176.236 196.857 160.177 192.508 153.373C188.158 146.57 176.916 128.953 176.916 128.953L179.887 129.825Z" fill="#BF604B"/>
<path fill-rule="evenodd" clip-rule="evenodd" d="M205.169 321.964C202.554 318.525 198.053 302.799 207.446 287.572C214.748 275.705 227.903 272.39 236.073 268.149L220.69 296.797C216.407 304.806 205.774 322.703 205.774 322.703L205.169 321.964Z" fill="#BF604B"/>
<path fill-rule="evenodd" clip-rule="evenodd" d="M236.847 271.54C238.114 277.885 240.027 291.764 235.068 301.3C226.507 317.808 210.488 321.822 206.606 322.565L205.747 322.712C205.747 322.712 216.407 304.806 220.69 296.797C224.973 288.787 236.073 268.136 236.073 268.136L236.847 271.54Z" fill="#A9503C"/>
<path fill-rule="evenodd" clip-rule="evenodd" d="M261.311 555.116C261.311 555.116 273.465 531.391 292.887 522.665C317.791 511.482 344.337 522.22 350.585 525.09L351.955 525.744C351.955 525.744 333.308 529.869 313.308 536.014C303.311 539.084 290.307 543.859 279.807 547.868L261.311 555.116Z" fill="#BF604B"/>
<path fill-rule="evenodd" clip-rule="evenodd" d="M349.954 530.452C345.907 539.04 335.722 556.798 318.992 561.435C296.685 567.616 261.311 555.116 261.311 555.116L279.816 547.868C290.316 543.863 303.32 539.084 313.317 536.014C333.33 529.869 351.964 525.744 351.964 525.744L349.954 530.452Z" fill="#A9503C"/>
<path fill-rule="evenodd" clip-rule="evenodd" d="M273.821 134.23C273.821 134.23 261.28 126.101 249.392 127.298C234.161 128.833 224.261 141.488 222.02 144.652L221.535 145.355C221.535 145.355 231.764 142.138 243.193 139.526C248.912 138.217 256.57 136.9 262.796 135.908L273.821 134.23Z" fill="#BF604B"/>
<path fill-rule="evenodd" clip-rule="evenodd" d="M223.834 147.055C228.201 150.098 238.119 155.878 247.551 153.449C260.124 150.209 273.826 134.23 273.826 134.23L262.801 135.886C256.575 136.878 248.917 138.195 243.197 139.503C231.759 142.115 221.539 145.332 221.539 145.332L223.834 147.055Z" fill="#A9503C"/>
<path fill-rule="evenodd" clip-rule="evenodd" d="M134.084 375.268C134.084 375.268 151.655 361.865 169.311 362.292C191.939 362.835 207.958 380.371 211.609 384.75L212.4 385.733C212.4 385.733 196.973 382.147 179.82 379.588C171.241 378.307 159.807 377.23 150.521 376.473L134.084 375.268Z" fill="#BF604B"/>
<path fill-rule="evenodd" clip-rule="evenodd" d="M209.212 388.532C203.114 393.511 189.15 403.15 174.968 400.631C156.067 397.276 134.053 375.268 134.053 375.268L150.508 376.465C159.798 377.221 171.232 378.302 179.806 379.579C196.964 382.138 212.387 385.724 212.387 385.724L209.212 388.532Z" fill="#A9503C"/>
<path fill-rule="evenodd" clip-rule="evenodd" d="M258.896 192.78C258.896 192.78 241.717 187.187 228.21 192.286C210.888 198.818 203.239 216.702 201.62 221.049L201.273 222.019C201.273 222.019 212.209 215.082 224.759 208.47C231.034 205.163 239.569 201.243 246.551 198.146L258.896 192.78Z" fill="#BF604B"/>
<path fill-rule="evenodd" clip-rule="evenodd" d="M204.493 223.318C210.541 225.512 223.923 229.179 234.178 223.407C247.858 215.709 258.892 192.784 258.892 192.784L246.533 198.146C239.569 201.261 231.034 205.163 224.741 208.47C212.191 215.082 201.255 222.019 201.255 222.019L204.493 223.318Z" fill="#A9503C"/>
<path fill-rule="evenodd" clip-rule="evenodd" d="M242.548 306.955C242.548 306.955 224.177 315.463 216.963 329.96C207.717 348.538 215.064 369.029 217.043 373.861L217.488 374.92C217.488 374.92 221.188 360.882 226.458 345.877C229.091 338.375 233.129 328.643 236.473 320.79L242.548 306.955Z" fill="#BF604B"/>
<path fill-rule="evenodd" clip-rule="evenodd" d="M221.13 373.537C227.77 370.724 241.552 363.529 245.59 350.963C250.962 334.205 242.557 306.955 242.557 306.955L236.491 320.79C233.129 328.643 229.109 338.375 226.476 345.877C221.206 360.882 217.506 374.92 217.506 374.92L221.13 373.537Z" fill="#A9503C"/>
<path fill-rule="evenodd" clip-rule="evenodd" d="M144.78 211.037C144.78 211.037 164.957 212.697 176.711 223.821C191.774 238.087 191.916 259.864 191.716 265.075L191.654 266.227C191.654 266.227 183.355 254.333 173.251 242.065C168.199 235.929 161.084 228.173 155.227 221.952L144.78 211.037Z" fill="#BF604B"/>
<path fill-rule="evenodd" clip-rule="evenodd" d="M187.763 266.196C180.563 265.84 165.148 263.824 157.046 253.407C146.243 239.52 144.78 211.037 144.78 211.037L155.209 221.943C161.066 228.173 168.181 235.92 173.234 242.056C183.338 254.333 191.632 266.245 191.632 266.245L187.763 266.196Z" fill="#A9503C"/>
<path fill-rule="evenodd" clip-rule="evenodd" d="M276.783 374.587C276.783 374.587 258.487 387.909 253.724 405.37C247.623 427.743 260.124 448.617 263.344 453.485L264.073 454.548C264.073 454.548 265.078 438.351 267.6 420.757C268.858 411.96 271.157 400.417 273.136 391.073L276.783 374.587Z" fill="#BF604B"/>
<path fill-rule="evenodd" clip-rule="evenodd" d="M267.755 452.234C274.426 447.709 287.972 436.825 289.662 422.172C291.913 402.633 276.765 374.587 276.765 374.587L273.119 391.073C271.14 400.417 268.845 411.96 267.582 420.757C265.06 438.351 264.055 454.548 264.055 454.548L267.755 452.234Z" fill="#A9503C"/>
<path fill-rule="evenodd" clip-rule="evenodd" d="M718.074 127.805C725.728 144.465 738.025 175.417 744.833 214.53C749.521 241.473 751.602 272.296 747.751 305.002C741.013 362.185 718.546 420.543 673.86 464.805C636.903 501.413 584.737 528.334 513.759 536.993C513.235 537.022 512.723 537.158 512.255 537.394C511.786 537.63 511.371 537.96 511.035 538.363C510.699 538.766 510.45 539.234 510.303 539.738C510.156 540.242 510.115 540.77 510.181 541.291C510.247 541.812 510.419 542.313 510.688 542.764C510.956 543.215 511.314 543.606 511.74 543.912C512.166 544.219 512.65 544.434 513.163 544.545C513.675 544.656 514.205 544.66 514.72 544.557C587.396 535.044 640.599 506.926 678.151 469.072C723.331 423.529 745.843 363.863 752.207 305.483C755.822 272.319 753.452 241.108 748.462 213.858C741.249 174.438 728.565 143.312 720.694 126.568C720.533 126.222 720.241 125.955 719.883 125.824C719.525 125.693 719.129 125.711 718.784 125.872C718.438 126.033 718.171 126.325 718.04 126.683C717.909 127.041 717.927 127.437 718.088 127.783L718.074 127.805Z" fill="#A9503C"/>
<path fill-rule="evenodd" clip-rule="evenodd" d="M561.558 445.386C558.809 447.473 534.803 466.184 529.622 483.458C520.55 513.716 543.129 530.625 543.978 531.266C544.939 521.125 546.962 503.286 549.991 490.693C552.997 478.172 558.374 457.49 561.558 445.386Z" fill="#A9503C"/>
<path fill-rule="evenodd" clip-rule="evenodd" d="M561.558 445.386C558.374 457.49 552.997 478.172 549.995 490.689C546.966 503.282 544.947 521.125 543.987 531.266H544.009C544.009 531.266 571.858 511.527 572.471 488.215C573.085 465.446 561.798 445.168 561.798 445.168L561.558 445.386Z" fill="#BF604B"/>
<path fill-rule="evenodd" clip-rule="evenodd" d="M691.222 89.8044C693.041 90.196 709.011 93.8403 715.477 101.08C726.804 113.771 719.649 127.178 719.377 127.672C716.598 122.946 711.541 114.705 707.192 109.254C702.843 103.803 695.549 94.9839 691.222 89.8044Z" fill="#BF604B"/>
<path fill-rule="evenodd" clip-rule="evenodd" d="M691.222 89.8044C695.536 94.9794 702.873 103.843 707.196 109.259C711.519 114.674 716.598 122.95 719.382 127.676C719.382 127.676 701.299 124.405 695.678 113.179C690.186 102.215 691.066 89.7465 691.066 89.7465L691.222 89.8044Z" fill="#A9503C"/>
<path fill-rule="evenodd" clip-rule="evenodd" d="M788.496 162.286C788.808 164.929 791.271 188.25 784.467 200.358C772.544 221.574 751.113 218.09 750.294 217.952C755.4 211.998 764.21 201.337 769.569 192.922C774.928 184.508 783.466 170.522 788.496 162.286Z" fill="#A9503C"/>
<path fill-rule="evenodd" clip-rule="evenodd" d="M788.496 162.286C783.489 170.522 774.901 184.566 769.573 192.927C764.246 201.288 755.404 212.003 750.299 217.956C750.299 217.956 746.35 191.952 758.936 179.141C771.228 166.629 788.496 162.046 788.496 162.046V162.286Z" fill="#BF604B"/>
<path fill-rule="evenodd" clip-rule="evenodd" d="M810.23 261.23C809.67 264.056 804.449 288.925 793.371 299.137C773.998 317.025 753.048 306.257 752.269 305.861C759.523 301.411 772.157 293.401 780.491 286.496C788.826 279.59 802.319 268.051 810.23 261.23Z" fill="#A9503C"/>
<path fill-rule="evenodd" clip-rule="evenodd" d="M810.23 261.23C802.318 268.047 788.776 279.656 780.496 286.496C772.215 293.335 759.523 301.424 752.269 305.861C752.269 305.861 756.876 277.73 774.127 268.728C790.978 259.935 810.31 260.981 810.31 260.981L810.23 261.23Z" fill="#BF604B"/>
<path fill-rule="evenodd" clip-rule="evenodd" d="M700.094 356.503C698.76 358.497 687.419 376.233 688.011 388.692C689.047 410.527 707.672 416.374 708.366 416.583C706.663 409.744 703.879 397.636 702.958 388.724C702.038 379.811 700.801 365.131 700.094 356.503Z" fill="#A9503C"/>
<path fill-rule="evenodd" clip-rule="evenodd" d="M700.094 356.503C700.801 365.131 702.046 379.868 702.958 388.728C703.87 397.587 706.658 409.748 708.366 416.588C708.366 416.588 722.001 397.298 717.047 381.942C712.213 366.942 700.192 356.307 700.192 356.307L700.094 356.503Z" fill="#BF604B"/>
<path fill-rule="evenodd" clip-rule="evenodd" d="M684.942 160.257C685.943 162.166 694.962 178.901 705.057 183.889C722.739 192.624 735.499 180.472 735.97 180.014C729.828 178.367 719.07 175.27 711.621 172.093C704.172 168.916 692.058 163.474 684.942 160.257Z" fill="#A9503C"/>
<path fill-rule="evenodd" clip-rule="evenodd" d="M684.942 160.252C692.058 163.47 704.23 168.934 711.626 172.089C719.022 175.244 729.833 178.363 735.974 180.009C735.974 180.009 726.729 160.786 712.449 157.965C698.498 155.224 684.849 160.066 684.849 160.066L684.942 160.252Z" fill="#BF604B"/>
<path fill-rule="evenodd" clip-rule="evenodd" d="M770.707 461.881C768.288 463.977 746.692 482.212 728.943 484.21C697.848 487.708 684.026 465.521 683.532 464.671C693.681 465.317 711.581 466.162 724.425 465.357C737.202 464.582 758.344 462.909 770.707 461.881Z" fill="#A9503C"/>
<path fill-rule="evenodd" clip-rule="evenodd" d="M770.707 461.881C758.331 462.892 737.184 464.551 724.425 465.361C711.586 466.162 693.681 465.321 683.51 464.676V464.654C683.51 464.654 706.636 443.21 729.762 446.076C752.354 448.875 770.943 461.695 770.943 461.695L770.707 461.881Z" fill="#BF604B"/>
<path fill-rule="evenodd" clip-rule="evenodd" d="M752.474 98.0186C752.883 99.8563 756.289 116.133 752.367 125.883C745.496 142.965 730.153 143.917 729.584 143.949C732.75 138.871 738.185 129.834 741.356 122.959C744.527 116.084 749.556 104.711 752.474 98.0186Z" fill="#A9503C"/>
<path fill-rule="evenodd" clip-rule="evenodd" d="M752.474 98.0141C749.543 104.689 744.504 116.124 741.356 122.959C738.207 129.794 732.75 138.871 729.584 143.949C729.584 143.949 724.941 125.989 732.879 114.812C740.631 103.892 752.447 97.845 752.447 97.845L752.474 98.0141Z" fill="#BF604B"/>
<path fill-rule="evenodd" clip-rule="evenodd" d="M620.333 577.641C610.74 568.537 599.907 551.25 582.878 543.076C565.85 534.901 545.566 540.148 545.566 540.148C545.566 540.148 553.637 553.145 573.548 562.325C584.088 567.184 605.123 573.369 615.001 576.159L620.333 577.641Z" fill="#BF604B"/>
<path fill-rule="evenodd" clip-rule="evenodd" d="M545.566 540.148C545.566 540.148 539.388 567.34 559.285 577.748C582.616 589.953 620.333 577.641 620.333 577.641L614.996 576.159C605.132 573.369 584.083 567.184 573.543 562.325C553.637 553.145 545.566 540.148 545.566 540.148Z" fill="#A9503C"/>
<path fill-rule="evenodd" clip-rule="evenodd" d="M770.952 409.125C760.777 409.57 745.407 406.273 731.75 411.315C718.092 416.356 710.114 430.395 710.114 430.395C710.114 430.395 721.628 432.9 737.384 426.804C745.723 423.578 760.434 415.235 767.27 411.284L770.952 409.125Z" fill="#BF604B"/>
<path fill-rule="evenodd" clip-rule="evenodd" d="M710.118 430.395C710.118 430.395 721.837 448.399 738.265 442.97C757.526 436.603 770.952 409.125 770.952 409.125L767.269 411.284C760.434 415.248 745.723 423.578 737.384 426.804C721.632 432.9 710.118 430.395 710.118 430.395Z" fill="#A9503C"/>
<path fill-rule="evenodd" clip-rule="evenodd" d="M719.724 499.989C709.398 495.873 695.549 485.75 679.699 484.682C663.849 483.614 649.649 494.026 649.649 494.026C649.649 494.026 660.002 501.658 678.409 502.614C688.153 503.122 706.516 501.386 715.09 500.487L719.724 499.989Z" fill="#BF604B"/>
<path fill-rule="evenodd" clip-rule="evenodd" d="M649.654 494.035C649.654 494.035 653.305 517.174 672.085 519.114C694.108 521.365 719.724 499.98 719.724 499.98L715.099 500.487C706.525 501.377 688.162 503.121 678.418 502.614C660.007 501.666 649.654 494.035 649.654 494.035Z" fill="#A9503C"/>
<path fill-rule="evenodd" clip-rule="evenodd" d="M649.96 424.504C652.744 433.586 660.389 446.089 660.189 459.656C659.989 473.224 650.134 484.606 650.134 484.606C650.134 484.606 644.352 475.262 644.828 459.505C645.077 451.166 647.834 435.646 649.195 428.402L649.96 424.504Z" fill="#BF604B"/>
<path fill-rule="evenodd" clip-rule="evenodd" d="M650.143 484.602C650.143 484.602 630.686 479.881 630.361 463.742C629.979 444.821 649.96 424.49 649.96 424.49L649.209 428.397C647.848 435.637 645.09 451.162 644.841 459.501C644.37 475.231 650.143 484.602 650.143 484.602Z" fill="#A9503C"/>
<path fill-rule="evenodd" clip-rule="evenodd" d="M590.429 515.225C596.14 514.437 619.23 509.511 623.312 481.118C625.954 462.718 615.614 446.984 611.874 435.285L599.422 476.855C595.944 488.424 589.135 515.385 589.135 515.385L590.429 515.225Z" fill="#BF604B"/>
<path fill-rule="evenodd" clip-rule="evenodd" d="M607.938 437.742C600.769 442.543 585.898 453.854 581.597 467.524C574.148 491.187 585.506 510.067 588.464 514.419L589.135 515.367C589.135 515.367 595.944 488.424 599.422 476.837C602.9 465.25 611.874 435.268 611.874 435.268L607.938 437.742Z" fill="#A9503C"/>
<path fill-rule="evenodd" clip-rule="evenodd" d="M745.069 272.083C746.701 268.007 750.851 252.847 733.6 239.431C722.437 230.736 709.464 229.641 700.308 227.71L723.091 251.632C729.437 258.307 744.678 272.991 744.678 272.991L745.069 272.083Z" fill="#BF604B"/>
<path fill-rule="evenodd" clip-rule="evenodd" d="M700.468 231.239C700.935 237.793 702.798 251.903 710.211 259.913C723.042 273.774 739.812 273.382 743.801 273.071L744.691 272.982C744.691 272.982 729.45 258.298 723.104 251.623C716.758 244.948 700.321 227.701 700.321 227.701L700.468 231.239Z" fill="#A9503C"/>
<path fill-rule="evenodd" clip-rule="evenodd" d="M746.052 350.251C750.054 353.424 767.296 365.202 787.949 350.474C801.331 340.929 805.076 324.696 810.288 315.147L776.106 332.577C766.571 337.427 745.185 349.526 745.185 349.526L746.052 350.251Z" fill="#A9503C"/>
<path fill-rule="evenodd" clip-rule="evenodd" d="M806.308 314.151C798.858 312.495 782.541 309.883 771.174 315.486C751.491 325.168 746.354 343.964 745.38 348.525L745.185 349.535C745.185 349.535 766.576 337.436 776.106 332.586C785.637 327.736 810.288 315.147 810.288 315.147L806.308 314.151Z" fill="#BF604B"/>
<path fill-rule="evenodd" clip-rule="evenodd" d="M740.684 176.378C744.495 176.917 760.225 177.985 768.044 160.497C773.109 149.164 769.342 137.163 769.084 128.953L753.492 153.373C749.138 160.177 739.839 176.236 739.839 176.236L740.684 176.378Z" fill="#A9503C"/>
<path fill-rule="evenodd" clip-rule="evenodd" d="M766.113 129.825C760.63 131.605 749.009 136.139 743.748 144.127C734.636 157.961 738.478 172.16 739.581 175.506L739.839 176.236C739.839 176.236 749.143 160.177 753.492 153.373C757.842 146.57 769.084 128.953 769.084 128.953L766.113 129.825Z" fill="#BF604B"/>
<path fill-rule="evenodd" clip-rule="evenodd" d="M740.831 321.964C743.446 318.525 747.946 302.799 738.554 287.572C731.251 275.705 718.096 272.39 709.927 268.149L725.31 296.797C729.593 304.806 740.226 322.703 740.226 322.703L740.831 321.964Z" fill="#BF604B"/>
<path fill-rule="evenodd" clip-rule="evenodd" d="M709.158 271.54C707.89 277.885 705.978 291.764 710.936 301.3C719.497 317.808 735.516 321.822 739.399 322.565L740.257 322.712C740.257 322.712 729.593 304.806 725.31 296.797C721.027 288.787 709.927 268.136 709.927 268.136L709.158 271.54Z" fill="#A9503C"/>
<path fill-rule="evenodd" clip-rule="evenodd" d="M684.689 555.116C684.689 555.116 672.535 531.391 653.113 522.665C628.209 511.482 601.663 522.22 595.415 525.09L594.045 525.744C594.045 525.744 612.692 529.869 632.692 536.014C642.689 539.084 655.693 543.859 666.193 547.868L684.689 555.116Z" fill="#BF604B"/>
<path fill-rule="evenodd" clip-rule="evenodd" d="M596.046 530.452C600.093 539.04 610.278 556.798 627.008 561.435C649.315 567.616 684.689 555.116 684.689 555.116L666.197 547.868C655.697 543.863 642.693 539.084 632.696 536.014C612.684 529.869 594.05 525.744 594.05 525.744L596.046 530.452Z" fill="#A9503C"/>
<path fill-rule="evenodd" clip-rule="evenodd" d="M672.179 134.23C672.179 134.23 684.72 126.101 696.607 127.298C711.839 128.833 721.739 141.488 723.98 144.652L724.465 145.355C724.465 145.355 714.236 142.138 702.807 139.526C697.088 138.217 689.43 136.9 683.203 135.908L672.179 134.23Z" fill="#BF604B"/>
<path fill-rule="evenodd" clip-rule="evenodd" d="M722.17 147.055C717.803 150.098 707.886 155.878 698.453 153.449C685.881 150.209 672.179 134.23 672.179 134.23L683.203 135.886C689.43 136.878 697.088 138.195 702.807 139.503C714.245 142.115 724.465 145.332 724.465 145.332L722.17 147.055Z" fill="#A9503C"/>
<path fill-rule="evenodd" clip-rule="evenodd" d="M811.915 375.268C811.915 375.268 794.344 361.865 776.689 362.292C754.061 362.835 738.042 380.371 734.391 384.75L733.6 385.733C733.6 385.733 749.027 382.147 766.18 379.588C774.759 378.307 786.193 377.23 795.478 376.473L811.915 375.268Z" fill="#BF604B"/>
<path fill-rule="evenodd" clip-rule="evenodd" d="M736.788 388.532C742.886 393.511 756.85 403.15 771.032 400.631C789.933 397.276 811.947 375.268 811.947 375.268L795.492 376.465C786.202 377.221 774.768 378.302 766.194 379.579C749.036 382.138 733.613 385.724 733.613 385.724L736.788 388.532Z" fill="#A9503C"/>
<path fill-rule="evenodd" clip-rule="evenodd" d="M687.099 192.78C687.099 192.78 704.279 187.187 717.785 192.286C735.103 198.823 742.73 216.684 744.366 221.049L744.713 222.019C744.713 222.019 733.778 215.082 721.227 208.47C714.952 205.163 706.418 201.243 699.436 198.146L687.099 192.78Z" fill="#BF604B"/>
<path fill-rule="evenodd" clip-rule="evenodd" d="M741.507 223.318C735.459 225.512 722.077 229.179 711.822 223.407C698.142 215.709 687.108 192.784 687.108 192.784L699.467 198.151C706.431 201.265 714.966 205.168 721.259 208.474C733.809 215.086 744.745 222.023 744.745 222.023L741.507 223.318Z" fill="#A9503C"/>
<path fill-rule="evenodd" clip-rule="evenodd" d="M703.456 306.955C703.456 306.955 721.828 315.463 729.041 329.96C738.287 348.538 730.94 369.029 728.961 373.861L728.517 374.92C728.517 374.92 724.816 360.882 719.546 345.877C716.914 338.375 712.876 328.643 709.531 320.79L703.456 306.955Z" fill="#BF604B"/>
<path fill-rule="evenodd" clip-rule="evenodd" d="M724.87 373.537C718.23 370.724 704.443 363.542 700.441 350.963C695.069 334.205 703.478 306.955 703.478 306.955L709.544 320.79C712.906 328.643 716.927 338.375 719.56 345.877C724.83 360.882 728.53 374.92 728.53 374.92L724.87 373.537Z" fill="#A9503C"/>
<path fill-rule="evenodd" clip-rule="evenodd" d="M801.22 211.037C801.22 211.037 781.043 212.71 769.289 223.839C754.226 238.105 754.084 259.882 754.284 265.092L754.346 266.245C754.346 266.245 762.64 254.333 772.744 242.056C777.796 235.92 784.912 228.164 790.769 221.943L801.22 211.037Z" fill="#BF604B"/>
<path fill-rule="evenodd" clip-rule="evenodd" d="M758.255 266.196C765.455 265.84 780.874 263.824 788.972 253.407C799.775 239.52 801.238 211.037 801.238 211.037L790.791 221.943C784.934 228.173 777.819 235.92 772.766 242.056C762.662 254.333 754.368 266.245 754.368 266.245L758.255 266.196Z" fill="#A9503C"/>
<path fill-rule="evenodd" clip-rule="evenodd" d="M669.221 374.587C669.221 374.587 687.517 387.909 692.28 405.37C698.382 427.743 685.881 448.617 682.661 453.485L681.931 454.548C681.931 454.548 680.926 438.351 678.405 420.757C677.146 411.96 674.847 400.417 672.868 391.073L669.221 374.587Z" fill="#BF604B"/>
<path fill-rule="evenodd" clip-rule="evenodd" d="M678.245 452.234C671.574 447.709 658.028 436.825 656.338 422.172C654.087 402.633 669.235 374.587 669.235 374.587L672.881 391.073C674.86 400.417 677.155 411.96 678.418 420.757C680.94 438.351 681.945 454.548 681.945 454.548L678.245 452.234Z" fill="#A9503C"/>
<path d="M851.039 515.071H627V602.606H851.039V515.071Z" fill="#193D6D"/>
<path d="M636.441 543.042C635.885 543.042 635.351 542.821 634.957 542.427C634.564 542.033 634.342 541.499 634.342 540.942V531.353C634.341 530.162 634.577 528.983 635.035 527.883C635.493 526.784 636.164 525.787 637.011 524.95C638.709 523.25 641.009 522.291 643.41 522.28H688.19C688.747 522.28 689.281 522.501 689.675 522.896C690.07 523.29 690.291 523.825 690.291 524.382C690.291 524.94 690.07 525.475 689.675 525.869C689.281 526.263 688.747 526.485 688.19 526.485H643.393C642.107 526.486 640.875 526.997 639.966 527.907C639.057 528.816 638.546 530.049 638.545 531.335V540.906C638.55 541.185 638.499 541.463 638.395 541.722C638.292 541.981 638.137 542.217 637.941 542.416C637.746 542.615 637.512 542.773 637.254 542.88C636.997 542.988 636.721 543.043 636.441 543.042V543.042Z" fill="white"/>
<path d="M636.441 568.067C636.166 568.067 635.893 568.013 635.638 567.908C635.384 567.802 635.152 567.647 634.957 567.452C634.762 567.257 634.608 567.026 634.502 566.771C634.397 566.516 634.342 566.243 634.342 565.967V553.77C634.342 553.213 634.564 552.678 634.958 552.284C635.352 551.889 635.886 551.668 636.444 551.668C637.001 551.668 637.535 551.889 637.93 552.284C638.324 552.678 638.545 553.213 638.545 553.77V565.967C638.545 566.243 638.491 566.517 638.385 566.772C638.279 567.027 638.124 567.259 637.929 567.454C637.733 567.649 637.501 567.803 637.246 567.909C636.991 568.014 636.717 568.068 636.441 568.067V568.067Z" fill="white"/>
<path fill-rule="evenodd" clip-rule="evenodd" d="M859.893 509.549C859.893 508.826 859.751 508.109 859.474 507.441C859.198 506.773 858.792 506.165 858.281 505.654C857.77 505.142 857.163 504.736 856.495 504.46C855.827 504.183 855.111 504.04 854.388 504.04H627V515.062H854.388C855.111 515.062 855.827 514.92 856.495 514.643C857.163 514.366 857.77 513.96 858.281 513.449C858.792 512.937 859.198 512.33 859.474 511.662C859.751 510.993 859.893 510.277 859.893 509.553V509.549Z" fill="#0A2445"/>
<path fill-rule="evenodd" clip-rule="evenodd" d="M675.408 496.836C675.826 484.947 713.89 482.45 742.486 463.263C771.264 484.898 809.146 484.973 809.564 496.836V504.054H675.408V496.836Z" fill="#BF755A"/>
<path d="M799.491 498.256H685.481C685.186 498.256 684.904 498.138 684.695 497.93C684.487 497.721 684.37 497.438 684.37 497.143C684.37 496.848 684.487 496.565 684.695 496.357C684.904 496.148 685.186 496.031 685.481 496.031H799.491C799.786 496.031 800.069 496.148 800.277 496.357C800.486 496.565 800.603 496.848 800.603 497.143C800.603 497.438 800.486 497.721 800.277 497.93C800.069 498.138 799.786 498.256 799.491 498.256V498.256Z" fill="#935139"/>
<path fill-rule="evenodd" clip-rule="evenodd" d="M725.177 426.339C725.177 426.339 729.011 432.084 732.204 442.243C733.245 445.562 734.308 449.082 734.272 452.846C734.237 456.611 733.054 460.104 731.991 463.45C728.793 473.497 725.182 479.353 725.182 479.353C725.182 488.911 759.804 488.911 759.804 479.353C759.804 479.353 756.197 473.493 752.995 463.45C751.928 460.108 750.771 456.642 750.714 452.846C750.656 449.051 751.736 445.562 752.781 442.243C755.97 432.084 759.804 426.339 759.804 426.339C759.804 421.746 757.98 417.34 754.733 414.092C751.487 410.844 747.084 409.019 742.493 409.019C737.902 409.019 733.499 410.844 730.252 414.092C727.006 417.34 725.182 421.746 725.182 426.339H725.177Z" fill="#935139"/>
<path d="M793.923 392.406C793.193 392.433 792.465 392.316 791.78 392.062C791.095 391.807 790.467 391.42 789.931 390.923C789.396 390.426 788.964 389.828 788.659 389.163C788.355 388.499 788.184 387.781 788.157 387.05C788.13 386.32 788.247 385.591 788.501 384.906C788.755 384.221 789.142 383.593 789.639 383.057C790.136 382.521 790.734 382.089 791.398 381.784C792.062 381.479 792.779 381.309 793.509 381.281C818.205 379.408 833.508 366.491 834.424 346.725C834.726 340.348 833.165 335.623 829.648 332.277C821.994 324.988 807.531 326.301 807.385 326.314C805.917 326.462 804.451 326.021 803.309 325.088C802.167 324.154 801.442 322.805 801.294 321.337C801.146 319.869 801.587 318.402 802.52 317.259C803.453 316.116 804.801 315.391 806.268 315.243C807.064 315.163 825.872 313.374 837.266 324.169C843.212 329.803 845.991 337.567 845.533 347.25C844.955 359.504 840.014 370.193 831.253 378.149C822.274 386.305 809.506 391.222 794.341 392.388C794.205 392.4 794.065 392.406 793.923 392.406Z" fill="#935139"/>
<path d="M684.116 392.406C683.974 392.406 683.831 392.406 683.671 392.406C668.497 391.258 655.729 386.336 646.759 378.167C637.998 370.21 633.057 359.522 632.479 347.268C632.034 337.585 634.801 329.816 640.746 324.187C652.145 313.392 670.952 315.176 671.744 315.261C673.211 315.409 674.559 316.135 675.492 317.279C676.424 318.422 676.864 319.889 676.716 321.357C676.567 322.825 675.842 324.174 674.699 325.107C673.557 326.04 672.09 326.48 670.623 326.332C670.374 326.309 655.992 325.032 648.365 332.294C644.847 335.641 643.286 340.371 643.588 346.743C644.527 366.508 659.825 379.426 684.503 381.299C685.233 381.326 685.95 381.497 686.615 381.802C687.279 382.106 687.876 382.539 688.373 383.075C688.87 383.61 689.257 384.239 689.511 384.924C689.765 385.609 689.882 386.338 689.855 387.068C689.828 387.799 689.657 388.517 689.353 389.181C689.048 389.845 688.616 390.443 688.081 390.941C687.545 391.438 686.917 391.825 686.232 392.079C685.548 392.334 684.819 392.451 684.089 392.423L684.116 392.406Z" fill="#935139"/>
<path fill-rule="evenodd" clip-rule="evenodd" d="M669.249 328V300.955C669.249 299.11 669.981 297.341 671.285 296.037C672.588 294.733 674.356 294 676.2 294H807.838C809.682 294 811.45 294.733 812.753 296.037C814.057 297.341 814.789 299.11 814.789 300.955V328.361C814.66 387.426 782.102 435.314 742.019 435.314C701.856 435.319 669.249 387.235 669.249 328Z" fill="#BF755A"/>
<path fill-rule="evenodd" clip-rule="evenodd" d="M819.686 302.014C819.686 299.89 818.842 297.852 817.341 296.35C815.84 294.848 813.804 294.004 811.681 294.004H672.357C670.234 294.004 668.198 294.848 666.697 296.35C665.196 297.852 664.352 299.89 664.352 302.014V302.014C664.352 304.138 665.196 306.175 666.697 307.677C668.198 309.18 670.234 310.023 672.357 310.023H811.681C813.804 310.023 815.84 309.18 817.341 307.677C818.842 306.175 819.686 304.138 819.686 302.014V302.014Z" fill="#DBB2A3"/>
<path d="M807.576 304.016H677.272C676.741 304.016 676.232 303.805 675.857 303.43C675.481 303.054 675.271 302.545 675.271 302.014C675.271 301.483 675.481 300.973 675.857 300.598C676.232 300.222 676.741 300.011 677.272 300.011H807.576C808.107 300.011 808.616 300.222 808.991 300.598C809.366 300.973 809.577 301.483 809.577 302.014C809.577 302.545 809.366 303.054 808.991 303.43C808.616 303.805 808.107 304.016 807.576 304.016V304.016Z" fill="#935139"/>
<path d="M742.019 401.87C762.557 401.87 779.207 385.211 779.207 364.662C779.207 344.112 762.557 327.453 742.019 327.453C721.481 327.453 704.831 344.112 704.831 364.662C704.831 385.211 721.481 401.87 742.019 401.87Z" fill="#DBB2A3"/>
<path d="M742.019 408.06C733.441 408.06 725.055 405.515 717.922 400.746C710.789 395.977 705.23 389.199 701.947 381.269C698.664 373.339 697.805 364.613 699.479 356.195C701.152 347.777 705.283 340.044 711.349 333.974C717.415 327.905 725.144 323.772 733.557 322.097C741.971 320.423 750.692 321.282 758.618 324.567C766.543 327.852 773.317 333.414 778.083 340.551C782.849 347.688 785.393 356.078 785.393 364.662C785.38 376.168 780.806 387.199 772.675 395.334C764.543 403.47 753.519 408.047 742.019 408.06V408.06ZM742.019 323.204C733.823 323.2 725.811 325.628 718.994 330.182C712.178 334.735 706.864 341.209 703.726 348.784C700.587 356.359 699.764 364.696 701.36 372.739C702.957 380.782 706.902 388.171 712.696 393.971C718.49 399.77 725.873 403.721 733.911 405.322C741.949 406.923 750.281 406.103 757.854 402.966C765.426 399.828 771.898 394.515 776.452 387.696C781.006 380.878 783.436 372.862 783.436 364.662C783.425 353.673 779.058 343.137 771.294 335.366C763.529 327.594 753.002 323.22 742.019 323.204V323.204Z" fill="#935139"/>
<path d="M702.047 568.688C700.781 570.203 698.992 571.383 696.68 572.227C694.367 573.055 691.805 573.469 688.992 573.469C686.039 573.469 683.445 572.828 681.211 571.547C678.992 570.25 677.273 568.375 676.055 565.922C674.852 563.469 674.234 560.586 674.203 557.273V554.953C674.203 551.547 674.773 548.602 675.914 546.117C677.07 543.617 678.727 541.711 680.883 540.398C683.055 539.07 685.594 538.406 688.5 538.406C692.547 538.406 695.711 539.375 697.992 541.312C700.273 543.234 701.625 546.039 702.047 549.727H695.203C694.891 547.773 694.195 546.344 693.117 545.438C692.055 544.531 690.586 544.078 688.711 544.078C686.32 544.078 684.5 544.977 683.25 546.773C682 548.57 681.367 551.242 681.352 554.789V556.969C681.352 560.547 682.031 563.25 683.391 565.078C684.75 566.906 686.742 567.82 689.367 567.82C692.008 567.82 693.891 567.258 695.016 566.133V560.25H688.617V555.07H702.047V568.688ZM714.469 573H707.672V547.641H714.469V573ZM707.273 541.078C707.273 540.062 707.609 539.227 708.281 538.57C708.969 537.914 709.898 537.586 711.07 537.586C712.227 537.586 713.148 537.914 713.836 538.57C714.523 539.227 714.867 540.062 714.867 541.078C714.867 542.109 714.516 542.953 713.812 543.609C713.125 544.266 712.211 544.594 711.07 544.594C709.93 544.594 709.008 544.266 708.305 543.609C707.617 542.953 707.273 542.109 707.273 541.078ZM727.219 573H720.422V537H727.219V573ZM747.516 573C747.203 572.391 746.977 571.633 746.836 570.727C745.195 572.555 743.062 573.469 740.438 573.469C737.953 573.469 735.891 572.75 734.25 571.312C732.625 569.875 731.812 568.062 731.812 565.875C731.812 563.188 732.805 561.125 734.789 559.688C736.789 558.25 739.672 557.523 743.438 557.508H746.555V556.055C746.555 554.883 746.25 553.945 745.641 553.242C745.047 552.539 744.102 552.188 742.805 552.188C741.664 552.188 740.766 552.461 740.109 553.008C739.469 553.555 739.148 554.305 739.148 555.258H732.375C732.375 553.789 732.828 552.43 733.734 551.18C734.641 549.93 735.922 548.953 737.578 548.25C739.234 547.531 741.094 547.172 743.156 547.172C746.281 547.172 748.758 547.961 750.586 549.539C752.43 551.102 753.352 553.305 753.352 556.148V567.141C753.367 569.547 753.703 571.367 754.359 572.602V573H747.516ZM741.914 568.289C742.914 568.289 743.836 568.07 744.68 567.633C745.523 567.18 746.148 566.578 746.555 565.828V561.469H744.023C740.633 561.469 738.828 562.641 738.609 564.984L738.586 565.383C738.586 566.227 738.883 566.922 739.477 567.469C740.07 568.016 740.883 568.289 741.914 568.289ZM764.789 547.641L765 550.57C766.812 548.305 769.242 547.172 772.289 547.172C774.977 547.172 776.977 547.961 778.289 549.539C779.602 551.117 780.273 553.477 780.305 556.617V573H773.531V556.781C773.531 555.344 773.219 554.305 772.594 553.664C771.969 553.008 770.93 552.68 769.477 552.68C767.57 552.68 766.141 553.492 765.188 555.117V573H758.414V547.641H764.789ZM784.477 560.133C784.477 556.242 785.398 553.109 787.242 550.734C789.102 548.359 791.602 547.172 794.742 547.172C797.523 547.172 799.688 548.125 801.234 550.031L801.516 547.641H807.656V572.156C807.656 574.375 807.148 576.305 806.133 577.945C805.133 579.586 803.719 580.836 801.891 581.695C800.062 582.555 797.922 582.984 795.469 582.984C793.609 582.984 791.797 582.609 790.031 581.859C788.266 581.125 786.93 580.172 786.023 579L789.023 574.875C790.711 576.766 792.758 577.711 795.164 577.711C796.961 577.711 798.359 577.227 799.359 576.258C800.359 575.305 800.859 573.945 800.859 572.18V570.82C799.297 572.586 797.242 573.469 794.695 573.469C791.648 573.469 789.18 572.281 787.289 569.906C785.414 567.516 784.477 564.352 784.477 560.414V560.133ZM791.25 560.625C791.25 562.922 791.711 564.727 792.633 566.039C793.555 567.336 794.82 567.984 796.43 567.984C798.492 567.984 799.969 567.211 800.859 565.664V555C799.953 553.453 798.492 552.68 796.477 552.68C794.852 552.68 793.57 553.344 792.633 554.672C791.711 556 791.25 557.984 791.25 560.625Z" fill="white"/>
<path d="M740.467 359.874C742.21 359.911 743.911 359.336 745.274 358.25C746.649 357.124 747.333 355.58 747.333 353.502C747.345 351.987 746.762 350.528 745.71 349.439C744.647 348.313 743.149 347.753 741.339 347.753C740.297 347.729 739.259 347.898 738.279 348.251C737.544 348.568 736.885 349.037 736.344 349.626C735.839 350.311 735.4 351.043 735.032 351.811C734.659 352.75 734.219 353.56 733.907 354.374C733.677 354.841 733.273 355.201 732.782 355.375C732.215 355.637 731.596 355.764 730.972 355.749C730.549 355.744 730.131 355.652 729.744 355.48C729.357 355.308 729.009 355.059 728.722 354.748C728.38 354.405 728.114 353.994 727.941 353.542C727.769 353.089 727.694 352.606 727.721 352.122C727.755 350.938 728.077 349.78 728.659 348.749C729.391 347.487 730.343 346.366 731.47 345.439C732.829 344.292 734.399 343.422 736.091 342.876C738.065 342.226 740.133 341.909 742.21 341.937C744.034 341.908 745.849 342.183 747.583 342.751C749.139 343.23 750.583 344.017 751.83 345.065C753.001 346.031 753.94 347.247 754.578 348.625C755.166 349.986 755.469 351.454 755.468 352.937C755.517 354.774 755.064 356.59 754.156 358.187C753.117 359.796 751.831 361.23 750.344 362.437C751.828 363.193 753.18 364.185 754.347 365.374C755.42 366.396 756.271 367.629 756.846 368.996C757.38 370.371 757.656 371.832 757.66 373.307C757.661 375.158 757.278 376.988 756.535 378.683C755.782 380.431 754.677 382.005 753.288 383.306C751.786 384.696 750.025 385.778 748.107 386.492C746.009 387.265 743.788 387.646 741.552 387.618C739.285 387.655 737.037 387.203 734.961 386.292C733.183 385.529 731.571 384.425 730.216 383.043C729.041 381.857 728.071 380.484 727.343 378.981C726.801 377.889 726.482 376.7 726.405 375.483C726.384 374.953 726.474 374.423 726.667 373.929C726.861 373.434 727.155 372.985 727.53 372.609C728.319 371.903 729.345 371.523 730.403 371.545C730.98 371.558 731.542 371.73 732.026 372.044C732.506 372.306 732.881 372.726 733.089 373.232C734.152 376.044 735.273 378.167 736.46 379.541C737.647 380.916 739.395 381.602 741.579 381.602C742.846 381.601 744.091 381.278 745.199 380.663C746.403 380.021 747.415 379.073 748.134 377.913C748.898 376.629 749.288 375.157 749.259 373.663C749.259 371.287 748.637 369.414 747.325 368.039C746.013 366.664 744.211 366.041 741.89 366.041C741.445 366.041 740.827 366.103 740.018 366.166C739.208 366.228 738.581 366.29 738.332 366.29C737.868 366.319 737.402 366.255 736.962 366.102C736.523 365.949 736.118 365.711 735.771 365.4C735.448 365.112 735.196 364.753 735.034 364.352C734.871 363.951 734.802 363.518 734.832 363.086C734.82 362.63 734.915 362.176 735.11 361.763C735.306 361.351 735.596 360.99 735.957 360.71C736.642 360.15 737.767 359.82 739.204 359.82L740.467 359.874Z" fill="#BF3D32"/>
<path d="M691.761 383.257C691.191 383.254 690.634 383.084 690.16 382.768C689.685 382.451 689.314 382.003 689.092 381.477C676.395 351.584 677.716 323.266 677.779 322.073C677.85 321.326 678.207 320.634 678.776 320.144C679.344 319.653 680.08 319.401 680.83 319.44C681.579 319.479 682.285 319.806 682.8 320.353C683.314 320.9 683.598 321.625 683.591 322.376V322.376C683.591 322.656 682.297 350.592 694.447 379.194C694.635 379.637 694.71 380.118 694.667 380.597C694.623 381.075 694.462 381.536 694.198 381.937C693.934 382.338 693.575 382.668 693.153 382.896C692.731 383.125 692.259 383.246 691.779 383.248L691.761 383.257Z" fill="#DBB2A3"/>
<path d="M704.836 406.28C704.381 406.281 703.933 406.175 703.527 405.971C703.12 405.767 702.767 405.47 702.496 405.105C699.405 400.93 696.611 396.542 694.136 391.974C693.934 391.637 693.802 391.262 693.749 390.873C693.696 390.484 693.721 390.088 693.825 389.709C693.928 389.329 694.108 388.975 694.351 388.667C694.595 388.359 694.899 388.104 695.244 387.916C695.589 387.728 695.968 387.612 696.359 387.575C696.75 387.538 697.145 387.58 697.519 387.7C697.893 387.819 698.24 388.013 698.537 388.269C698.834 388.526 699.077 388.84 699.25 389.193C701.593 393.527 704.238 397.69 707.166 401.652C707.487 402.086 707.682 402.599 707.728 403.137C707.774 403.674 707.671 404.214 707.429 404.696C707.187 405.178 706.816 405.583 706.357 405.867C705.899 406.15 705.37 406.301 704.831 406.302L704.836 406.28Z" fill="#DBB2A3"/>
<path d="M296.893 492.071H72.8545V603.069H296.893V492.071Z" fill="#193D6D"/>
<path d="M87.4014 528.038C87.1254 528.039 86.8519 527.985 86.5968 527.88C86.3416 527.774 86.1096 527.62 85.9143 527.425C85.7189 527.23 85.5638 526.998 85.4581 526.743C85.3523 526.488 85.2979 526.214 85.2979 525.938V511.468C85.2967 510.277 85.532 509.097 85.9901 507.998C86.4482 506.899 87.1198 505.902 87.9662 505.064C89.6644 503.365 91.9643 502.406 94.3658 502.395H139.132C139.689 502.395 140.224 502.616 140.618 503.01C141.012 503.405 141.233 503.939 141.233 504.497C141.233 505.055 141.012 505.589 140.618 505.984C140.224 506.378 139.689 506.599 139.132 506.599H94.3525C93.7159 506.599 93.0855 506.725 92.4974 506.969C91.9093 507.212 91.3749 507.57 90.9248 508.02C90.4746 508.471 90.1176 509.005 89.874 509.594C89.6303 510.182 89.505 510.813 89.505 511.45V525.92C89.5073 526.198 89.4546 526.473 89.3499 526.73C89.2452 526.988 89.0905 527.221 88.8949 527.418C88.6993 527.615 88.4666 527.772 88.2102 527.878C87.9538 527.984 87.6789 528.039 87.4014 528.038V528.038Z" fill="white"/>
<path d="M87.4014 554.06C87.1254 554.061 86.8519 554.007 86.5968 553.902C86.3416 553.796 86.1096 553.642 85.9142 553.447C85.7189 553.252 85.5638 553.02 85.4581 552.765C85.3523 552.51 85.2979 552.236 85.2979 551.96V539.768C85.3227 539.227 85.555 538.716 85.9463 538.342C86.3377 537.968 86.858 537.76 87.3992 537.76C87.9403 537.76 88.4607 537.968 88.852 538.342C89.2434 538.716 89.4756 539.227 89.5005 539.768V551.96C89.5005 552.517 89.2794 553.051 88.8857 553.445C88.492 553.839 87.9581 554.06 87.4014 554.06V554.06Z" fill="white"/>
<path d="M150.102 560.09H136.232L133.596 568H125.185L139.476 529.609H146.806L161.176 568H152.765L150.102 560.09ZM138.368 553.683H147.966L143.141 539.312L138.368 553.683ZM172.303 568H164.656V527.5H172.303V568ZM186.646 568H179V539.471H186.646V568ZM178.552 532.088C178.552 530.945 178.93 530.005 179.686 529.267C180.459 528.528 181.505 528.159 182.823 528.159C184.124 528.159 185.161 528.528 185.935 529.267C186.708 530.005 187.095 530.945 187.095 532.088C187.095 533.248 186.699 534.197 185.908 534.936C185.135 535.674 184.106 536.043 182.823 536.043C181.54 536.043 180.503 535.674 179.712 534.936C178.938 534.197 178.552 533.248 178.552 532.088ZM200.094 539.471L200.331 542.661C202.353 540.183 205.086 538.943 208.531 538.943C212.205 538.943 214.728 540.394 216.099 543.294C218.103 540.394 220.959 538.943 224.668 538.943C227.762 538.943 230.064 539.849 231.576 541.659C233.088 543.452 233.844 546.159 233.844 549.78V568H226.197V549.807C226.197 548.189 225.881 547.012 225.248 546.273C224.615 545.518 223.499 545.14 221.899 545.14C219.614 545.14 218.032 546.229 217.153 548.409L217.18 568H209.56V549.833C209.56 548.181 209.234 546.985 208.584 546.247C207.934 545.509 206.826 545.14 205.262 545.14C203.1 545.14 201.535 546.036 200.568 547.829V568H192.948V539.471H200.094Z" fill="white"/>
<path fill-rule="evenodd" clip-rule="evenodd" d="M64 486.558C64 485.097 64.5801 483.696 65.6126 482.663C66.6451 481.63 68.0455 481.049 69.5057 481.049H296.893V492.071H69.5057C68.7827 492.071 68.0667 491.929 67.3988 491.652C66.7308 491.375 66.1238 490.969 65.6126 490.458C65.1013 489.946 64.6958 489.339 64.4191 488.67C64.1424 488.002 64 487.286 64 486.562V486.558Z" fill="#0A2445"/>
<path fill-rule="evenodd" clip-rule="evenodd" d="M121.263 473.832C121.681 461.942 159.745 459.446 188.341 440.259C217.119 461.889 255 461.969 255.418 473.832V481.049H121.258V473.832H121.263Z" fill="#AAB9CC"/>
<path d="M245.345 475.251H131.336C131.041 475.251 130.758 475.134 130.55 474.925C130.341 474.717 130.224 474.434 130.224 474.139C130.224 473.844 130.341 473.561 130.55 473.352C130.758 473.144 131.041 473.026 131.336 473.026H245.345C245.64 473.026 245.923 473.144 246.132 473.352C246.34 473.561 246.457 473.844 246.457 474.139C246.457 474.434 246.34 474.717 246.132 474.925C245.923 475.134 245.64 475.251 245.345 475.251V475.251Z" fill="#8096B3"/>
<path fill-rule="evenodd" clip-rule="evenodd" d="M171.027 403.317C171.027 403.317 174.861 409.062 178.05 419.22C179.09 422.54 180.153 426.06 180.118 429.824C180.082 433.589 178.899 437.082 177.836 440.428C174.639 450.475 171.027 456.331 171.027 456.331C171.027 465.889 205.649 465.889 205.649 456.331C205.649 456.331 202.043 450.471 198.841 440.428C197.773 437.086 196.617 433.62 196.559 429.824C196.501 426.028 197.582 422.54 198.627 419.22C201.816 409.062 205.649 403.317 205.649 403.317C205.649 398.723 203.825 394.318 200.579 391.07C197.333 387.821 192.929 385.996 188.338 385.996C183.747 385.996 179.344 387.821 176.098 391.07C172.851 394.318 171.027 398.723 171.027 403.317Z" fill="#8096B3"/>
<path d="M239.777 369.397C238.303 369.452 236.867 368.918 235.786 367.914C234.705 366.91 234.066 365.517 234.012 364.042C233.957 362.566 234.49 361.13 235.494 360.048C236.497 358.966 237.889 358.327 239.364 358.273C264.059 356.399 279.362 343.482 280.278 323.716C280.581 317.326 279.011 312.592 275.475 309.241C267.866 302.032 253.399 303.287 253.239 303.301C251.833 303.339 250.464 302.843 249.409 301.912C248.354 300.981 247.691 299.684 247.554 298.283C247.416 296.881 247.815 295.481 248.67 294.362C249.525 293.244 250.771 292.491 252.159 292.256C252.955 292.176 271.762 290.388 283.156 301.183C289.102 306.816 291.881 314.581 291.423 324.263C290.841 336.518 285.904 347.206 277.143 355.162C268.164 363.319 255.396 368.235 240.231 369.401C240.062 369.397 239.92 369.397 239.777 369.397Z" fill="#8096B3"/>
<path d="M129.966 369.397C129.824 369.397 129.681 369.397 129.521 369.397C114.347 368.249 101.579 363.327 92.6091 355.158C83.8481 347.202 78.9072 336.513 78.329 324.259C77.8843 314.576 80.6505 306.807 86.5965 301.178C97.9948 290.383 116.798 292.167 117.594 292.252C119.061 292.4 120.409 293.125 121.342 294.268C122.275 295.411 122.716 296.878 122.568 298.346C122.42 299.814 121.695 301.163 120.553 302.096C119.411 303.03 117.945 303.471 116.478 303.323V303.323C116.331 303.323 101.873 301.988 94.2146 309.286C90.6968 312.632 89.1358 317.362 89.4383 323.734C90.3766 343.499 105.675 356.417 130.353 358.29C131.827 358.345 133.219 358.984 134.223 360.066C135.227 361.148 135.76 362.584 135.705 364.059C135.65 365.535 135.012 366.928 133.931 367.932C132.849 368.936 131.414 369.47 129.939 369.415L129.966 369.397Z" fill="#8096B3"/>
<path fill-rule="evenodd" clip-rule="evenodd" d="M115.103 305.014V277.955C115.103 276.11 115.836 274.341 117.139 273.037C118.443 271.733 120.211 271 122.054 271H253.693C255.536 271 257.304 271.733 258.608 273.037C259.912 274.341 260.644 276.11 260.644 277.955V305.361C260.515 364.426 227.957 412.314 187.874 412.314C147.711 412.314 115.103 364.235 115.103 305.014Z" fill="#AAB9CC"/>
<path fill-rule="evenodd" clip-rule="evenodd" d="M265.54 279.01C265.54 276.885 264.697 274.848 263.196 273.346C261.694 271.844 259.658 271 257.535 271H118.212C116.089 271 114.053 271.844 112.552 273.346C111.05 274.848 110.207 276.885 110.207 279.01C110.207 281.134 111.05 283.171 112.552 284.673C114.053 286.175 116.089 287.019 118.212 287.019H257.535C259.658 287.019 261.694 286.175 263.196 284.673C264.697 283.171 265.54 281.134 265.54 279.01V279.01Z" fill="#CFD8E2"/>
<path d="M253.43 281.012H123.126C122.595 281.012 122.086 280.801 121.711 280.425C121.336 280.05 121.125 279.541 121.125 279.009C121.125 278.478 121.336 277.969 121.711 277.594C122.086 277.218 122.595 277.007 123.126 277.007H253.43C253.961 277.007 254.47 277.218 254.846 277.594C255.221 277.969 255.432 278.478 255.432 279.009C255.432 279.541 255.221 280.05 254.846 280.425C254.47 280.801 253.961 281.012 253.43 281.012V281.012Z" fill="#8096B3"/>
<path d="M187.874 378.866C208.412 378.866 225.061 362.207 225.061 341.657C225.061 321.107 208.412 304.449 187.874 304.449C167.335 304.449 150.686 321.107 150.686 341.657C150.686 362.207 167.335 378.866 187.874 378.866Z" fill="#CFD8E2"/>
<path d="M187.874 385.055C179.295 385.054 170.91 382.507 163.779 377.737C156.647 372.967 151.089 366.189 147.808 358.259C144.526 350.329 143.668 341.603 145.343 333.185C147.018 324.767 151.149 317.035 157.216 310.967C163.282 304.898 171.01 300.766 179.424 299.092C187.837 297.418 196.558 298.278 204.483 301.563C212.408 304.848 219.182 310.411 223.947 317.547C228.713 324.684 231.256 333.074 231.256 341.657C231.243 353.165 226.668 364.197 218.535 372.333C210.402 380.469 199.375 385.045 187.874 385.055ZM187.874 300.199C179.678 300.199 171.667 302.631 164.853 307.186C158.04 311.742 152.729 318.216 149.593 325.792C146.456 333.367 145.636 341.703 147.235 349.745C148.833 357.787 152.78 365.175 158.575 370.973C164.369 376.771 171.752 380.719 179.79 382.319C187.828 383.918 196.159 383.097 203.73 379.96C211.301 376.822 217.773 371.508 222.325 364.69C226.878 357.872 229.309 349.857 229.309 341.657C229.297 330.665 224.927 320.127 217.159 312.355C209.391 304.583 198.859 300.211 187.874 300.199Z" fill="#8096B3"/>
<path d="M182.63 357.329H198.792C200.379 357.329 201.647 357.645 202.469 358.281C202.845 358.602 203.151 358.997 203.368 359.44C203.585 359.884 203.71 360.367 203.734 360.861C203.757 361.354 203.68 361.847 203.506 362.31C203.332 362.772 203.066 363.194 202.723 363.55C202.087 364.248 201.073 364.627 199.677 364.627H176.907C175.319 364.627 174.118 364.182 173.291 363.359C172.873 362.968 172.538 362.497 172.309 361.973C172.079 361.448 171.96 360.883 171.957 360.31C171.957 359.55 172.273 358.597 172.78 357.329C173.251 356.292 173.871 355.33 174.621 354.472C177.347 351.616 179.886 349.133 182.043 347.113C183.542 345.677 185.131 344.339 186.802 343.108C188.334 342.046 189.757 340.834 191.049 339.49C192.076 338.4 192.931 337.159 193.584 335.81C194.169 334.65 194.474 333.368 194.473 332.068C194.499 330.815 194.169 329.581 193.522 328.508C192.926 327.477 192.046 326.64 190.987 326.097C189.903 325.483 188.673 325.176 187.429 325.207C184.703 325.207 182.608 326.412 181.025 328.766C180.633 329.589 180.294 330.436 180.011 331.303C179.504 332.7 178.997 333.777 178.361 334.475C178.034 334.858 177.623 335.161 177.16 335.359C176.697 335.557 176.195 335.646 175.693 335.619C175.212 335.641 174.732 335.562 174.284 335.387C173.836 335.213 173.43 334.946 173.091 334.604C172.413 333.836 172.051 332.839 172.077 331.814C172.093 330.282 172.417 328.769 173.029 327.365C173.679 325.767 174.651 324.32 175.884 323.115C177.284 321.769 178.951 320.731 180.776 320.067C182.966 319.255 185.29 318.867 187.625 318.924C190.381 318.862 193.122 319.364 195.678 320.396C197.106 321.061 198.397 321.986 199.485 323.124C200.61 324.273 201.494 325.634 202.087 327.129C202.668 328.649 202.97 330.262 202.976 331.89C203.001 334.349 202.342 336.766 201.073 338.872C200.006 340.684 198.705 342.347 197.204 343.82C195.87 344.963 193.646 346.868 190.533 349.404C187.42 351.941 185.268 353.912 184.129 355.305C183.57 355.933 183.068 356.611 182.63 357.329Z" fill="#BF3E33"/>
<path d="M137.615 360.253C137.045 360.25 136.489 360.08 136.014 359.763C135.54 359.447 135.169 358.998 134.947 358.473C122.237 328.584 123.558 300.266 123.633 299.091C123.705 298.343 124.062 297.652 124.63 297.162C125.199 296.671 125.934 296.419 126.684 296.458C127.434 296.497 128.14 296.824 128.654 297.371C129.169 297.918 129.452 298.643 129.446 299.394C129.446 299.674 128.152 327.609 140.301 356.212C140.489 356.654 140.565 357.136 140.521 357.615C140.478 358.093 140.317 358.553 140.053 358.955C139.789 359.356 139.43 359.685 139.008 359.914C138.585 360.143 138.113 360.264 137.633 360.266L137.615 360.253Z" fill="#CFD8E2"/>
<path d="M150.686 383.275C150.231 383.276 149.783 383.17 149.377 382.966C148.97 382.762 148.618 382.466 148.346 382.101C145.256 377.919 142.464 373.525 139.99 368.952C139.788 368.615 139.657 368.24 139.603 367.851C139.55 367.461 139.576 367.065 139.679 366.686C139.783 366.307 139.962 365.953 140.206 365.645C140.45 365.337 140.753 365.081 141.098 364.894C141.443 364.706 141.823 364.59 142.214 364.553C142.605 364.516 142.999 364.558 143.374 364.678C143.748 364.797 144.094 364.991 144.391 365.247C144.689 365.504 144.931 365.818 145.104 366.171C147.449 370.505 150.096 374.668 153.025 378.63C153.346 379.063 153.54 379.577 153.587 380.115C153.633 380.652 153.53 381.192 153.288 381.674C153.046 382.156 152.675 382.561 152.216 382.845C151.758 383.128 151.229 383.279 150.69 383.28L150.686 383.275Z" fill="#CFD8E2"/>
<path d="M603.496 424.864H341.259V603H603.496V424.864Z" fill="#0A2445"/>
<path d="M358.55 468.756C358.274 468.757 358.001 468.703 357.746 468.598C357.49 468.492 357.258 468.338 357.063 468.143C356.868 467.948 356.713 467.716 356.607 467.461C356.501 467.206 356.447 466.932 356.447 466.656V445.079C356.449 442.678 357.403 440.377 359.1 438.679C360.797 436.981 363.097 436.027 365.497 436.024H427.131C427.688 436.024 428.223 436.246 428.617 436.64C429.011 437.034 429.232 437.569 429.232 438.127C429.232 438.684 429.011 439.219 428.617 439.613C428.223 440.008 427.688 440.229 427.131 440.229H365.497C364.212 440.23 362.979 440.742 362.07 441.651C361.162 442.56 360.65 443.793 360.649 445.079V466.656C360.649 466.932 360.595 467.205 360.49 467.46C360.384 467.715 360.229 467.946 360.034 468.141C359.84 468.336 359.608 468.491 359.353 468.596C359.099 468.702 358.826 468.756 358.55 468.756V468.756Z" fill="white"/>
<path d="M358.55 499.135C358.274 499.135 358.001 499.081 357.746 498.976C357.49 498.871 357.258 498.716 357.063 498.521C356.868 498.326 356.713 498.094 356.607 497.839C356.501 497.584 356.447 497.31 356.447 497.034V479.68C356.472 479.139 356.704 478.629 357.095 478.255C357.487 477.881 358.007 477.672 358.548 477.672C359.089 477.672 359.609 477.881 360.001 478.255C360.392 478.629 360.624 479.139 360.649 479.68V497.034C360.649 497.591 360.428 498.125 360.035 498.519C359.641 498.913 359.107 499.135 358.55 499.135V499.135Z" fill="white"/>
<path d="M404.312 486.5L416 519.5L427.625 486.5H439.938V532H430.531V519.562L431.469 498.094L419.188 532H412.75L400.5 498.125L401.438 519.562V532H392.062V486.5H404.312ZM467.781 528.562C465.552 531.271 462.469 532.625 458.531 532.625C454.906 532.625 452.135 531.583 450.219 529.5C448.323 527.417 447.354 524.365 447.312 520.344V498.188H456.344V520.031C456.344 523.552 457.948 525.312 461.156 525.312C464.219 525.312 466.323 524.25 467.469 522.125V498.188H476.531V532H468.031L467.781 528.562ZM492.875 532H483.812V484H492.875V532ZM512.969 519.219L519.219 498.188H528.906L515.312 537.25L514.562 539.031C512.542 543.448 509.208 545.656 504.562 545.656C503.25 545.656 501.917 545.458 500.562 545.062V538.219L501.938 538.25C503.646 538.25 504.917 537.99 505.75 537.469C506.604 536.948 507.271 536.083 507.75 534.875L508.812 532.094L496.969 498.188H506.688L512.969 519.219ZM551.562 532C551.146 531.188 550.844 530.177 550.656 528.969C548.469 531.406 545.625 532.625 542.125 532.625C538.812 532.625 536.062 531.667 533.875 529.75C531.708 527.833 530.625 525.417 530.625 522.5C530.625 518.917 531.948 516.167 534.594 514.25C537.26 512.333 541.104 511.365 546.125 511.344H550.281V509.406C550.281 507.844 549.875 506.594 549.062 505.656C548.271 504.719 547.01 504.25 545.281 504.25C543.76 504.25 542.562 504.615 541.688 505.344C540.833 506.073 540.406 507.073 540.406 508.344H531.375C531.375 506.385 531.979 504.573 533.188 502.906C534.396 501.24 536.104 499.938 538.312 499C540.521 498.042 543 497.562 545.75 497.562C549.917 497.562 553.219 498.615 555.656 500.719C558.115 502.802 559.344 505.74 559.344 509.531V524.188C559.365 527.396 559.812 529.823 560.688 531.469V532H551.562ZM544.094 525.719C545.427 525.719 546.656 525.427 547.781 524.844C548.906 524.24 549.74 523.438 550.281 522.438V516.625H546.906C542.385 516.625 539.979 518.188 539.688 521.312L539.656 521.844C539.656 522.969 540.052 523.896 540.844 524.625C541.635 525.354 542.719 525.719 544.094 525.719Z" fill="white"/>
<path fill-rule="evenodd" clip-rule="evenodd" d="M333.628 419.355C333.625 418.63 333.765 417.911 334.041 417.241C334.316 416.57 334.721 415.96 335.233 415.446C335.744 414.932 336.352 414.524 337.021 414.246C337.691 413.968 338.409 413.824 339.134 413.824H607.818C609.278 413.824 610.679 414.405 611.711 415.438C612.744 416.471 613.324 417.872 613.324 419.333V419.333C613.324 420.794 612.744 422.195 611.711 423.229C610.679 424.262 609.278 424.842 607.818 424.842H339.134C337.673 424.842 336.273 424.262 335.24 423.229C334.208 422.195 333.628 420.794 333.628 419.333V419.355Z" fill="#193D6D"/>
<path fill-rule="evenodd" clip-rule="evenodd" d="M393.257 405.152C393.759 390.837 439.597 387.825 474.036 364.722C508.694 390.775 554.318 390.868 554.816 405.152V413.824H393.252V405.152H393.257Z" fill="#FBCB22"/>
<path d="M542.688 406.638H405.389C405.094 406.638 404.811 406.521 404.602 406.312C404.394 406.104 404.277 405.821 404.277 405.526C404.277 405.231 404.394 404.948 404.602 404.739C404.811 404.531 405.094 404.413 405.389 404.413H542.688C542.983 404.413 543.266 404.531 543.475 404.739C543.683 404.948 543.8 405.231 543.8 405.526C543.8 405.821 543.683 406.104 543.475 406.312C543.266 406.521 542.983 406.638 542.688 406.638Z" fill="#ECA400"/>
<path fill-rule="evenodd" clip-rule="evenodd" d="M453.174 320.233C453.174 320.233 457.79 327.153 461.624 339.367C462.878 343.372 464.154 347.604 464.114 352.138C464.074 356.672 462.647 360.882 461.366 364.904C457.515 377.003 453.165 384.038 453.165 384.038C453.165 395.549 494.858 395.549 494.858 384.038C494.858 384.038 490.513 376.981 486.662 364.904C485.381 360.899 483.958 356.703 483.914 352.138C483.869 347.572 485.145 343.367 486.404 339.367C490.246 327.135 494.854 320.233 494.854 320.233C494.854 314.701 492.657 309.396 488.748 305.484C484.839 301.573 479.536 299.375 474.007 299.375C468.479 299.375 463.176 301.573 459.267 305.484C455.357 309.396 453.161 314.701 453.161 320.233H453.174Z" fill="#ECA400"/>
<path fill-rule="evenodd" clip-rule="evenodd" d="M392.861 232.352C345.876 229.091 325.667 215.043 316.648 194.641C307.629 174.239 307.207 144.657 313.562 144.457C317.164 144.519 323.288 144.719 326.383 144.457C333.717 144.426 327.717 149.912 338.253 167.68C353.663 193.662 384.015 196.719 384.015 196.719V174.43C384.015 174.43 357.807 179.441 346.525 158.411C335.242 137.382 342.202 128.496 334.869 128.669C324.64 128.914 308.63 128.847 300.331 128.669C290.774 128.465 294.394 170.345 303.418 195.17C312.441 219.995 345.907 251.802 392.861 255.838C392.994 251.491 392.878 237.096 392.861 232.352Z" fill="#ECA400"/>
<path fill-rule="evenodd" clip-rule="evenodd" d="M554.091 232.351C601.076 229.09 621.285 215.042 630.304 194.64C639.323 174.238 639.745 144.656 633.39 144.456C629.788 144.518 623.664 144.718 620.569 144.456C613.235 144.425 619.234 149.911 608.699 167.679C593.289 193.661 562.937 196.718 562.937 196.718V174.429C562.937 174.429 589.144 179.44 600.427 158.41C611.71 137.381 604.75 128.495 612.083 128.668C622.312 128.913 638.322 128.846 646.62 128.668C656.178 128.464 652.558 170.344 643.534 195.169C634.511 219.994 601.045 251.81 554.091 255.846C553.958 251.49 554.073 237.095 554.091 232.351Z" fill="#ECA400"/>
<path fill-rule="evenodd" clip-rule="evenodd" d="M369.241 177.37V149.511C369.241 143.979 371.437 138.674 375.346 134.762C379.255 130.85 384.557 128.652 390.086 128.65H556.857C562.385 128.653 567.686 130.852 571.594 134.763C575.502 138.675 577.697 143.98 577.697 149.511V177.864C577.524 262.472 530.89 331.06 473.476 331.06C415.951 331.06 369.241 262.196 369.241 177.37Z" fill="#FBCB22"/>
<path fill-rule="evenodd" clip-rule="evenodd" d="M584.724 140.126C584.724 138.619 584.427 137.127 583.85 135.734C583.273 134.342 582.428 133.077 581.362 132.012C580.297 130.946 579.032 130.102 577.64 129.526C576.248 128.95 574.756 128.654 573.25 128.655H373.693C370.652 128.655 367.736 129.863 365.586 132.015C363.436 134.166 362.228 137.084 362.228 140.126V140.126C362.228 143.169 363.436 146.086 365.586 148.238C367.736 150.389 370.652 151.598 373.693 151.598H573.25C576.29 151.598 579.207 150.389 581.357 148.238C583.507 146.086 584.715 143.169 584.715 140.126H584.724Z" fill="#FEEDB4"/>
<path d="M567.379 142.129H380.684C380.153 142.129 379.644 141.918 379.269 141.542C378.894 141.167 378.683 140.657 378.683 140.126C378.683 139.595 378.894 139.086 379.269 138.71C379.644 138.335 380.153 138.124 380.684 138.124H567.379C567.91 138.124 568.419 138.335 568.795 138.71C569.17 139.086 569.381 139.595 569.381 140.126C569.381 140.657 569.17 141.167 568.795 141.542C568.419 141.918 567.91 142.129 567.379 142.129V142.129Z" fill="#FBCB22"/>
<path d="M473.476 283.158C502.896 283.158 526.745 259.296 526.745 229.859C526.745 200.423 502.896 176.561 473.476 176.561C444.056 176.561 420.207 200.423 420.207 229.859C420.207 259.296 444.056 283.158 473.476 283.158Z" fill="#FEEDB4"/>
<path d="M473.476 292.022C439.232 292.022 411.348 264.136 411.348 229.859C411.348 195.583 439.219 167.697 473.476 167.697C507.733 167.697 535.604 195.583 535.604 229.859C535.604 264.136 507.733 292.022 473.476 292.022ZM473.476 170.478C440.749 170.478 414.127 197.118 414.127 229.859C414.127 262.601 440.749 289.232 473.476 289.232C506.203 289.232 532.824 262.592 532.824 229.851C532.824 197.109 506.203 170.478 473.476 170.478Z" fill="#ECA400"/>
<path d="M481.41 250.831H490.051C492.387 250.831 494.156 251.372 495.356 252.455C495.948 252.999 496.414 253.665 496.721 254.407C497.028 255.15 497.17 255.951 497.135 256.754C497.135 260.61 494.421 262.609 488.992 262.752H461.66C456.231 262.603 453.517 260.604 453.517 256.754C453.482 255.951 453.623 255.15 453.931 254.407C454.238 253.665 454.704 252.999 455.296 252.455C456.481 251.372 458.25 250.831 460.601 250.831H469.442V215.736C462.03 221.438 457.031 224.29 454.446 224.293C453.83 224.288 453.222 224.154 452.66 223.902C452.098 223.649 451.595 223.282 451.182 222.824C450.729 222.382 450.369 221.853 450.124 221.269C449.879 220.685 449.753 220.058 449.754 219.425C449.754 217.942 450.223 216.845 451.16 216.136C452.725 215.081 454.383 214.171 456.114 213.418C459.648 211.75 462.475 209.996 464.595 208.154C466.708 206.319 468.599 204.243 470.229 201.969C471.866 199.687 472.933 198.284 473.431 197.759C473.93 197.234 474.865 196.971 476.238 196.971C476.956 196.948 477.669 197.098 478.318 197.407C478.966 197.717 479.531 198.178 479.964 198.751C480.898 199.938 481.367 201.59 481.37 203.708L481.41 250.831Z" fill="#BF3F34"/>
<path d="M401.488 256.495C400.67 256.495 399.87 256.254 399.188 255.803C398.505 255.351 397.971 254.708 397.65 253.955C379.461 211.135 381.356 170.571 381.449 168.867C381.547 167.792 382.058 166.796 382.874 166.09C383.69 165.383 384.748 165.021 385.826 165.079C386.903 165.136 387.917 165.609 388.653 166.399C389.389 167.188 389.791 168.232 389.774 169.312C389.748 169.81 387.942 209.778 405.34 250.697C405.604 251.331 405.709 252.019 405.644 252.703C405.579 253.386 405.347 254.043 404.968 254.615C404.589 255.187 404.075 255.657 403.471 255.982C402.867 256.308 402.192 256.48 401.506 256.482L401.488 256.495Z" fill="#FEEDB4"/>
<path d="M420.211 289.477C419.56 289.477 418.918 289.325 418.336 289.032C417.755 288.739 417.25 288.314 416.862 287.79C412.434 281.809 408.432 275.524 404.886 268.981C404.355 268.01 404.232 266.867 404.544 265.804C404.855 264.741 405.576 263.846 406.547 263.315C407.518 262.784 408.661 262.66 409.723 262.972C410.785 263.284 411.68 264.005 412.211 264.977C415.569 271.168 419.359 277.116 423.551 282.776C424.015 283.396 424.298 284.134 424.366 284.906C424.435 285.678 424.288 286.454 423.94 287.147C423.593 287.84 423.06 288.422 422.401 288.829C421.741 289.236 420.981 289.451 420.207 289.45L420.211 289.477Z" fill="#FEEDB4"/>
</g>
<defs>
<clipPath id="clip0">
<rect width="946" height="603" fill="white"/>
</clipPath>
</defs>
</svg>
